<?xml version="1.0" standalone="no"?>
<!DOCTYPE svg PUBLIC "-//W3C//DTD SVG 20010904//EN"
 "http://www.w3.org/TR/2001/REC-SVG-20010904/DTD/svg10.dtd">
<svg version="1.0" xmlns="http://www.w3.org/2000/svg"
 width="5621.000000pt" height="3748.000000pt" viewBox="0 0 5621.000000 3748.000000"
 preserveAspectRatio="xMidYMid meet">

<g transform="translate(0.000000,3748.000000) scale(0.100000,-0.100000)"
fill="#000000" stroke="none">
<path d="M42353 37468 c-13 -6 -23 -15 -23 -21 0 -5 -7 -6 -16 -3 -9 3 -28 -3
-44 -14 -15 -11 -30 -17 -32 -14 -3 3 -23 -5 -44 -17 -22 -12 -61 -34 -89 -48
-27 -14 -51 -29 -53 -33 -2 -5 -11 -8 -20 -8 -9 0 -28 -9 -42 -20 -14 -11 -28
-20 -33 -20 -4 0 -25 -11 -47 -25 -22 -14 -46 -25 -55 -25 -8 0 -15 -7 -15
-15 0 -8 -7 -15 -15 -15 -9 0 -18 -6 -21 -14 -3 -8 -13 -12 -25 -9 -13 4 -19
1 -17 -8 2 -9 -5 -13 -17 -12 -11 1 -14 0 -7 -3 19 -9 14 -24 -8 -24 -11 0
-30 -11 -41 -24 -13 -15 -27 -22 -37 -19 -11 5 -14 2 -9 -10 4 -11 2 -14 -9
-10 -10 4 -29 -10 -54 -37 -21 -23 -40 -41 -41 -40 -11 4 -39 -14 -39 -26 0
-8 -7 -14 -15 -14 -8 0 -20 -9 -27 -20 -7 -11 -20 -20 -28 -21 -10 0 -8 -3 5
-8 17 -7 15 -10 -18 -20 -20 -7 -42 -21 -47 -32 -6 -10 -18 -19 -27 -19 -9 0
-14 -3 -10 -6 7 -7 -24 -38 -46 -47 -9 -3 -17 -11 -17 -17 0 -7 -18 -29 -40
-50 -22 -21 -40 -41 -40 -45 0 -10 -28 -35 -39 -35 -6 0 -8 -7 -5 -15 4 -9 0
-15 -9 -15 -8 0 -21 -13 -29 -30 -7 -16 -17 -30 -21 -30 -5 0 -5 -5 -1 -12 5
-8 2 -9 -10 -5 -13 5 -19 1 -23 -13 -3 -11 -10 -20 -16 -20 -6 0 -8 -3 -4 -6
3 -3 -7 -20 -24 -38 -16 -17 -51 -62 -77 -101 -26 -38 -49 -72 -53 -75 -3 -3
-15 -22 -28 -43 -13 -21 -29 -43 -36 -50 -7 -7 -22 -32 -34 -54 -11 -23 -25
-44 -31 -48 -5 -3 -10 -15 -10 -26 0 -10 -4 -19 -8 -19 -5 0 -16 -18 -25 -39
-10 -22 -28 -54 -40 -73 -29 -42 -157 -304 -157 -320 0 -4 -11 -31 -25 -60
-14 -28 -25 -57 -25 -63 0 -6 -9 -29 -19 -52 -11 -22 -20 -49 -19 -59 0 -16
-27 -98 -59 -174 -3 -8 -6 -18 -5 -22 1 -4 -5 -25 -12 -46 -8 -22 -12 -43 -9
-46 3 -3 1 -11 -4 -18 -6 -7 -15 -42 -22 -78 -14 -71 -25 -126 -46 -210 -7
-30 -14 -75 -15 -100 -1 -25 -3 -58 -5 -75 -41 -360 -40 -644 5 -984 11 -79
17 -148 14 -152 -3 -5 0 -9 7 -9 7 0 9 -10 6 -30 -4 -16 -3 -30 2 -30 5 0 12
-27 16 -60 4 -33 10 -60 15 -60 4 0 8 -10 8 -22 0 -20 9 -55 42 -173 5 -16 14
-50 21 -75 6 -25 16 -49 20 -55 5 -5 9 -17 9 -27 0 -9 6 -32 14 -50 8 -18 31
-76 52 -128 20 -52 67 -160 105 -239 305 -638 777 -1185 1354 -1568 150 -99
202 -131 285 -176 88 -47 269 -137 274 -137 4 0 30 -11 59 -25 28 -14 62 -26
75 -27 12 -2 22 -5 22 -8 0 -3 21 -12 48 -19 26 -8 61 -20 77 -27 17 -7 77
-27 135 -45 58 -18 110 -36 116 -40 6 -5 13 -6 16 -3 3 3 41 -5 84 -16 44 -12
90 -23 104 -25 59 -9 98 -15 147 -25 29 -6 67 -11 85 -12 18 0 47 -4 63 -8 17
-5 64 -12 105 -15 93 -8 502 -15 512 -9 5 3 49 7 99 9 49 3 95 8 101 11 6 4
41 8 79 9 37 2 74 7 81 11 7 5 21 7 31 6 9 -2 17 2 17 7 0 6 5 11 11 11 5 0 8
-4 5 -9 -3 -4 29 0 71 10 42 10 80 16 85 13 4 -3 8 0 8 6 0 7 8 9 20 5 12 -4
20 -2 20 5 0 6 8 10 18 9 20 -3 83 10 97 21 6 4 38 13 73 20 34 7 62 17 62 22
0 6 11 7 25 4 14 -4 25 -2 25 4 0 5 7 10 15 10 8 0 29 6 47 14 47 19 101 37
118 40 8 1 26 8 40 16 14 8 39 20 55 26 82 32 141 61 157 77 10 9 27 17 38 17
19 0 129 55 140 71 3 3 16 10 30 14 14 4 45 22 70 40 25 17 62 39 82 49 20 9
40 21 43 26 3 5 21 17 40 26 19 9 35 20 35 25 0 5 5 9 11 9 15 0 75 51 71 62
-1 4 7 8 18 8 11 0 20 3 20 8 0 4 21 21 45 37 25 17 45 33 45 38 0 4 6 7 14 7
8 0 16 3 18 8 2 4 25 25 53 47 27 22 80 70 118 108 37 37 72 67 78 67 5 0 9 6
9 14 0 7 17 25 38 39 20 15 46 42 56 61 10 20 27 38 37 41 11 4 19 10 19 15 0
4 22 32 50 61 27 30 50 59 50 65 0 6 10 20 23 32 37 34 48 52 42 62 -4 6 -1 9
5 8 7 -2 20 13 31 32 10 19 25 40 32 45 18 14 60 75 51 75 -3 0 -1 7 6 15 7 8
16 13 20 10 5 -3 6 5 3 17 -3 13 -3 20 1 16 12 -10 46 30 40 47 -4 8 -1 15 4
15 6 0 14 9 17 20 3 11 13 20 20 20 8 0 17 15 21 34 3 19 12 37 20 40 8 3 14
14 14 26 0 11 8 25 19 31 11 8 16 19 13 31 -3 12 0 18 9 16 9 -2 13 4 11 15
-2 11 4 28 14 38 9 10 13 19 9 19 -5 0 -1 6 10 13 10 8 15 19 11 26 -4 6 0 14
8 17 9 3 16 15 16 25 0 18 18 59 31 69 4 3 10 20 14 38 4 19 20 59 36 89 16
30 29 62 29 72 0 9 7 29 15 45 8 15 15 35 15 42 0 8 6 14 13 14 9 0 9 2 0 8
-10 6 -10 12 2 28 8 10 15 27 15 37 0 10 5 15 11 12 7 -5 9 3 6 24 -3 17 -2
33 3 36 4 3 11 21 14 40 4 19 11 35 15 35 4 0 9 12 9 28 2 42 8 77 15 89 4 6
4 19 0 29 -4 12 -3 15 5 10 8 -5 12 1 12 18 0 14 6 26 13 26 8 0 8 3 -2 9 -12
8 -12 12 -2 25 7 9 11 22 8 31 -4 8 -2 17 4 21 5 3 7 14 4 24 -3 10 -2 21 4
24 5 3 12 30 16 59 4 28 10 56 13 61 6 10 9 38 16 146 3 41 9 100 12 130 10
81 10 130 0 130 -5 0 -4 6 2 13 10 12 7 331 -3 412 -3 22 -5 55 -5 74 1 19 -5
38 -12 43 -10 6 -10 10 2 19 11 8 12 12 3 16 -8 3 -11 14 -7 29 4 15 2 24 -5
24 -8 0 -11 14 -10 38 2 20 -1 48 -5 62 -8 28 -13 70 -15 118 -1 22 -5 31 -12
26 -9 -5 -10 3 -5 30 4 23 3 36 -4 36 -5 0 -10 17 -10 39 0 22 -6 44 -15 51
-8 7 -15 25 -15 41 0 16 -5 29 -12 29 -9 0 -8 4 2 10 10 6 11 13 5 18 -6 4
-11 20 -12 37 -2 38 -24 105 -35 105 -4 0 -8 10 -8 23 -1 12 -7 33 -14 47 -10
18 -11 30 -4 44 7 12 7 16 0 12 -11 -7 -25 9 -28 34 -8 48 -24 90 -44 110 -13
13 -20 29 -17 41 3 10 1 19 -5 19 -6 0 -8 6 -5 14 3 8 -1 17 -9 20 -8 3 -14
19 -14 37 0 22 -4 30 -14 26 -9 -4 -14 2 -14 16 1 26 -23 89 -37 99 -5 4 -6
10 -2 14 4 4 -2 13 -12 20 -10 8 -22 29 -25 48 -5 25 -13 36 -31 40 -21 5 -24
11 -19 31 5 21 3 24 -12 18 -12 -4 -15 -3 -10 5 4 7 4 18 -1 25 -4 6 -8 19 -8
27 0 8 -7 15 -15 15 -8 0 -14 8 -14 18 1 9 -10 30 -25 46 -28 31 -34 46 -33
74 1 20 -14 23 -21 5 -3 -8 -9 -3 -16 12 -19 40 -35 65 -54 84 -9 10 -17 26
-17 37 0 10 -7 19 -15 19 -8 0 -15 6 -15 13 -1 6 -14 27 -30 46 -16 19 -27 38
-24 43 3 5 2 8 -3 7 -4 -1 -15 -1 -23 0 -13 1 -13 2 0 11 10 6 11 10 3 10 -7
0 -13 9 -13 21 0 11 -4 18 -9 14 -5 -3 -16 4 -24 15 -7 11 -17 17 -21 12 -5
-4 -6 0 -4 8 3 18 -34 70 -51 70 -6 0 -13 11 -17 25 -3 14 -13 25 -21 25 -10
0 -13 6 -9 16 4 9 2 13 -5 8 -6 -3 -24 9 -40 27 -30 35 -34 39 -65 68 -39 36
-72 79 -66 86 3 3 -1 3 -10 0 -12 -5 -17 0 -20 17 -2 13 -11 24 -23 26 -32 6
-49 23 -33 33 10 6 8 9 -5 9 -25 0 -65 32 -59 48 2 7 -6 12 -22 12 -15 0 -25
5 -23 13 1 6 -4 11 -12 9 -9 -2 -11 3 -7 13 3 9 -1 18 -10 22 -9 3 -30 19 -47
34 -17 16 -35 29 -40 29 -4 0 -20 11 -35 25 -15 15 -44 36 -64 47 -21 12 -38
25 -38 30 0 5 -11 13 -25 18 -14 5 -25 17 -25 25 0 12 -6 15 -19 10 -14 -4
-23 0 -31 15 -6 12 -21 20 -36 20 -17 0 -23 4 -18 12 5 8 2 9 -9 5 -11 -4 -22
1 -29 13 -7 11 -18 20 -24 20 -7 0 -15 7 -18 16 -5 13 -9 14 -21 4 -12 -10
-15 -9 -15 4 0 9 -4 16 -10 16 -5 0 -10 7 -10 15 0 11 -7 14 -25 9 -20 -5 -27
-1 -34 17 -5 13 -10 17 -11 9 0 -9 -3 -11 -8 -5 -4 6 -22 18 -39 28 -25 14
-33 15 -33 5 0 -7 -6 -4 -12 7 -22 38 -62 59 -52 28 5 -17 5 -17 -9 -1 -8 10
-17 15 -20 11 -4 -3 -7 2 -7 11 0 13 -6 17 -20 13 -12 -3 -24 1 -29 11 -5 10
-12 16 -15 15 -6 -3 -10 -3 -23 2 -5 2 -18 6 -30 10 -13 4 -23 14 -23 22 0 12
-3 13 -14 3 -12 -9 -17 -7 -28 9 -14 24 -33 27 -42 9 -5 -10 -7 -10 -12 0 -8
16 -2787 17 -2821 0z"/>
<path d="M52855 31860 c-84 -13 -246 -57 -325 -90 -276 -114 -521 -330 -701
-620 -143 -230 -191 -409 -190 -703 0 -235 26 -356 99 -466 25 -38 35 -64 34
-86 -4 -52 86 -202 114 -191 8 3 14 1 14 -4 0 -6 -6 -10 -12 -10 -7 -1 -2 -7
12 -15 14 -8 21 -14 17 -15 -13 0 13 -40 26 -40 7 0 25 -21 42 -48 54 -85 175
-196 256 -235 80 -38 106 -48 129 -52 8 -1 44 -7 79 -13 35 -6 84 -9 108 -5
42 6 45 5 39 -14 -6 -17 -1 -21 25 -25 62 -9 345 -2 389 10 25 7 70 19 100 26
68 18 167 52 200 70 14 8 57 26 95 41 113 43 245 112 245 127 0 4 -12 8 -27 9
-28 0 -27 1 7 16 60 27 77 37 120 73 104 87 290 289 326 355 29 52 41 73 67
112 15 24 27 47 27 53 0 5 4 10 9 10 5 0 14 21 21 48 7 26 15 54 18 62 9 30
10 250 1 255 -5 4 -9 13 -9 21 0 29 -48 119 -116 219 -132 195 -200 300 -210
330 -9 27 -7 33 25 63 22 21 44 32 62 32 16 0 29 4 29 10 0 5 28 24 63 41 68
35 165 98 192 126 20 21 22 22 230 126 96 49 162 76 172 73 9 -4 20 -1 24 6 4
7 20 12 36 13 17 0 27 5 25 13 -3 15 15 16 20 2 4 -12 101 26 106 41 2 5 7 7
11 4 4 -2 55 10 112 26 156 46 429 99 509 99 17 0 39 9 50 20 21 21 60 27 60
10 0 -5 17 -10 38 -9 41 0 127 16 100 18 -10 0 -18 7 -18 15 0 9 11 14 34 13
19 0 32 -5 30 -9 -3 -5 6 -6 20 -2 18 4 26 2 26 -7 0 -8 11 -2 25 14 19 21 33
27 64 27 29 0 39 -4 35 -13 -3 -9 17 -13 83 -14 49 -1 93 3 99 8 8 6 13 3 17
-11 5 -18 0 -20 -41 -21 -43 -2 -42 -2 18 -9 67 -8 84 -5 61 9 -9 6 -10 11 -2
15 6 4 11 18 11 32 0 24 -1 24 -97 26 -126 2 -261 1 -343 -2 -175 -6 -585 -68
-665 -101 -11 -4 -38 -11 -60 -14 -45 -8 -301 -89 -327 -105 -10 -5 -25 -10
-33 -10 -8 0 -15 -4 -15 -8 0 -4 -20 -13 -43 -20 -24 -7 -59 -23 -78 -34 -30
-19 -32 -22 -15 -28 19 -6 19 -7 -2 -12 -12 -4 -25 -1 -29 4 -4 7 -10 6 -17
-4 -6 -8 -28 -18 -49 -22 -27 -5 -37 -11 -33 -21 5 -14 -20 -30 -41 -26 -7 1
-13 -3 -13 -10 0 -6 -7 -8 -15 -5 -9 3 -15 1 -14 -7 3 -27 -2 -35 -35 -51 -19
-9 -37 -16 -41 -16 -14 0 9 22 33 32 37 14 12 22 -32 9 -42 -11 -200 -96 -225
-120 -10 -9 -24 -17 -32 -19 -8 -2 -45 -21 -82 -43 -38 -21 -72 -39 -77 -39
-12 0 -77 114 -142 250 -78 163 -85 178 -121 225 -28 38 -117 115 -132 115 -4
0 -19 8 -33 18 -35 24 -103 50 -171 67 -59 14 -295 18 -376 5z m2865 -70 c0
-5 -6 -10 -12 -10 -7 0 -24 -3 -38 -6 l-25 -5 25 15 c29 18 50 20 50 6z m-700
-94 c0 -3 -4 -8 -10 -11 -5 -3 -10 -1 -10 4 0 6 5 11 10 11 6 0 10 -2 10 -4z
m-79 -50 c-6 -8 -22 -16 -34 -19 -22 -6 -22 -6 2 14 27 22 49 26 32 5z m-1057
-471 c-28 -22 -40 -18 -13 4 13 11 26 17 28 15 3 -2 -4 -11 -15 -19z m-1414
-735 c21 -21 27 -50 10 -50 -5 0 -10 5 -10 10 0 14 -36 12 -48 -3 -18 -22 -21
-85 -5 -92 9 -3 13 -12 10 -20 -4 -9 -1 -12 9 -8 7 3 14 0 14 -6 0 -6 5 -11
10 -11 6 0 10 9 10 21 0 11 5 17 10 14 6 -3 10 -15 10 -26 0 -10 4 -19 8 -19
5 0 17 -6 27 -14 16 -12 17 -16 6 -30 -9 -11 -10 -16 -2 -16 6 0 11 -10 11
-21 0 -16 5 -20 20 -16 12 3 20 0 20 -7 0 -17 -36 -48 -93 -79 -42 -23 -51
-25 -63 -13 -7 8 -18 16 -24 18 -6 2 -7 14 -2 32 11 41 -16 97 -43 91 -11 -3
-14 -2 -7 1 17 8 15 27 -2 21 -7 -3 -19 0 -25 6 -8 8 -14 8 -23 -1 -17 -17
-25 -15 -31 11 -3 12 -11 37 -18 54 -12 30 -11 34 9 53 12 12 22 30 22 41 0
11 6 19 13 18 25 -3 35 2 61 27 20 21 26 23 26 10 0 -23 37 -20 52 4 7 11 14
20 15 20 2 0 12 -9 23 -20z m95 -145 c15 0 19 -6 17 -24 -3 -33 -5 -34 -33
-19 -13 7 -25 24 -26 36 -2 17 1 21 10 15 6 -4 21 -8 32 -8z m-308 -61 c-3 -3
-12 -4 -19 -1 -8 3 -5 6 6 6 11 1 17 -2 13 -5z m328 -24 c-3 -5 -10 -10 -16
-10 -5 0 -9 5 -9 10 0 6 7 10 16 10 8 0 12 -4 9 -10z"/>
<path d="M52297 30343 c6 -16 25 -13 31 5 2 6 -6 10 -16 9 -12 -1 -18 -6 -15
-14z"/>
<path d="M52320 30273 c-23 -10 -30 -17 -20 -21 7 -3 16 0 18 7 2 6 10 11 17
11 8 0 17 5 20 10 8 13 7 12 -35 -7z"/>
<path d="M52371 30272 c-18 -33 -11 -41 18 -23 10 6 11 14 3 26 -9 17 -10 17
-21 -3z"/>
<path d="M52410 30225 c0 -8 5 -15 10 -15 6 0 10 5 10 12 0 6 7 3 15 -8 8 -10
15 -14 15 -8 0 14 -21 34 -37 34 -7 0 -13 -7 -13 -15z"/>
<path d="M52484 30224 c3 -9 6 -18 6 -20 0 -3 5 -2 10 1 16 10 12 35 -6 35
-11 0 -14 -5 -10 -16z"/>
<path d="M52420 30174 c0 -17 22 -14 28 4 2 7 -3 12 -12 12 -9 0 -16 -7 -16
-16z"/>
<path d="M52482 30154 c-12 -8 -27 -12 -33 -8 -6 4 -9 -1 -8 -12 2 -11 0 -25
-4 -31 -5 -8 -4 -13 3 -13 6 0 13 6 16 14 3 8 14 12 27 8 12 -3 19 -1 14 3 -4
5 0 19 8 32 18 27 9 30 -23 7z"/>
<path d="M55897 31813 c-13 -12 -7 -43 8 -43 8 0 15 6 15 13 0 18 -15 38 -23
30z"/>
<path d="M53845 28090 c-239 -10 -441 -53 -590 -125 -186 -90 -282 -184 -379
-370 -125 -240 -150 -468 -85 -792 17 -84 27 -157 24 -163 -3 -5 -30 -10 -58
-10 -29 0 -92 -5 -142 -10 -122 -14 -815 -13 -1050 0 -256 15 -489 36 -672 61
-84 12 -159 19 -168 15 -14 -5 -14 -8 0 -29 22 -34 142 -60 340 -73 107 -7
137 -10 150 -13 6 -2 22 -2 38 -1 15 1 27 -3 27 -9 0 -6 7 -7 17 -4 11 4 14 3
9 -5 -8 -13 16 -17 27 -5 4 3 19 8 34 9 20 2 24 1 13 -6 -12 -8 -12 -10 3 -16
9 -3 24 -1 31 5 10 8 16 9 21 1 3 -5 27 -10 53 -10 34 0 43 3 32 10 -30 19 18
11 58 -10 42 -23 32 -22 582 -24 190 -1 422 3 515 8 l171 9 2 -34 c1 -19 11
-88 21 -154 11 -66 25 -158 31 -205 28 -216 51 -304 115 -447 119 -259 334
-410 619 -431 118 -9 182 -8 251 6 27 6 53 8 57 6 3 -2 9 0 13 6 3 5 18 10 32
10 28 0 84 17 218 67 50 18 94 33 98 33 11 0 101 43 107 51 3 4 17 10 32 14
14 4 35 15 47 26 11 10 25 19 31 19 5 0 10 5 10 10 0 6 7 10 16 10 9 0 27 9
41 20 14 11 32 20 39 20 8 0 14 4 14 8 0 5 18 17 40 27 22 10 40 22 40 26 0 4
18 19 40 32 22 13 37 26 34 30 -4 3 12 14 35 23 27 11 40 22 39 32 -2 9 2 17
7 17 6 0 23 13 39 28 16 15 34 27 39 27 6 0 7 3 4 7 -4 3 2 12 13 20 11 8 20
21 20 30 0 9 6 13 15 9 18 -6 45 2 45 15 0 4 -8 6 -17 3 -10 -3 -5 2 11 11 21
12 25 19 16 25 -9 6 -5 12 16 23 37 19 134 123 134 143 0 33 21 56 46 50 18
-5 24 -2 24 10 0 10 14 30 32 46 17 15 26 28 20 28 -7 0 -12 4 -12 10 0 5 6 7
13 4 14 -5 61 72 52 86 -3 4 7 19 22 34 14 14 21 26 14 26 -18 0 -13 25 12 51
12 14 23 39 24 57 1 17 9 42 17 54 8 13 17 37 20 53 11 60 5 243 -9 265 -5 8
-10 22 -10 30 -3 55 -19 140 -27 140 -5 0 -6 9 -3 20 4 11 2 20 -4 20 -6 0
-10 3 -9 8 3 14 -21 60 -34 65 -10 4 -10 6 0 6 21 2 13 51 -13 77 -14 14 -25
33 -25 43 0 9 -7 26 -15 37 -8 10 -15 24 -15 30 0 20 -64 113 -77 113 -7 1
-15 12 -19 26 -3 14 -10 25 -14 25 -4 0 -18 16 -31 35 -13 19 -27 35 -31 35
-5 0 -16 8 -26 18 -10 9 -30 26 -46 37 -15 11 -37 28 -48 37 -11 10 -30 20
-42 24 -11 4 -23 9 -26 13 -6 8 -72 50 -125 82 -22 13 -41 27 -43 31 -2 4 -8
8 -14 8 -14 0 -64 22 -203 91 -146 71 -206 95 -304 119 -42 10 -88 22 -102 28
-14 6 -52 13 -85 17 -32 4 -66 8 -74 9 -8 1 -87 -1 -175 -4z m-195 -780 c0 -5
9 -10 20 -10 11 0 23 -7 27 -16 3 -8 17 -20 31 -25 14 -5 22 -12 18 -16 -3 -3
-16 -2 -29 4 -12 6 -37 16 -54 23 -21 8 -33 19 -33 31 0 11 5 19 10 19 6 0 10
-4 10 -10z m145 -92 c13 -11 22 -25 19 -29 -2 -4 0 -10 6 -14 5 -3 10 -10 10
-15 0 -5 -20 5 -45 22 -53 38 -55 45 -18 57 2 1 14 -9 28 -21z m1605 -18 c0
-5 -4 -10 -10 -10 -5 0 -10 5 -10 10 0 6 5 10 10 10 6 0 10 -4 10 -10z m-1519
-157 c10 -3 19 -10 20 -17 0 -6 2 -24 3 -39 1 -16 -1 -30 -5 -32 -7 -5 -48 81
-50 105 -3 33 4 53 8 21 3 -22 11 -35 24 -38z m1569 -33 c0 -5 -2 -10 -4 -10
-3 0 -8 5 -11 10 -3 6 -1 10 4 10 6 0 11 -4 11 -10z m-2547 -392 c15 0 27 -4
27 -9 0 -6 4 -8 9 -5 5 3 21 0 36 -8 34 -18 22 -25 -38 -23 -33 1 -46 6 -42
15 2 6 0 12 -5 12 -5 0 -12 -9 -15 -20 -3 -11 -14 -21 -23 -21 -9 -1 -28 -3
-42 -5 -63 -9 -381 -11 -386 -3 -3 5 8 12 25 15 17 4 31 10 31 15 0 5 7 9 15
9 8 0 15 -6 15 -12 0 -9 3 -9 9 1 5 8 18 16 28 17 65 11 113 12 118 4 9 -14
52 -12 88 4 52 23 61 25 92 19 17 -3 42 -5 58 -5z m-1303 -68 c0 -5 -5 -10
-11 -10 -5 0 -7 5 -4 10 3 6 8 10 11 10 2 0 4 -4 4 -10z m3700 -307 c-1 -14
-30 -47 -36 -41 -6 7 17 48 28 48 5 0 8 -3 8 -7z m-50 -57 c0 -3 -4 -8 -10
-11 -5 -3 -10 -1 -10 4 0 6 5 11 10 11 6 0 10 -2 10 -4z"/>
<path d="M49461 27405 c-38 -44 -39 -57 -3 -49 21 4 24 3 12 -5 -8 -6 -23 -11
-32 -11 -21 0 -52 -44 -45 -62 2 -7 -2 -29 -10 -48 -12 -29 -12 -43 -2 -80 15
-58 22 -64 48 -48 20 12 25 10 46 -14 13 -15 35 -30 50 -34 15 -4 30 -17 35
-29 5 -14 21 -26 39 -30 16 -3 35 -13 42 -21 20 -24 26 -16 33 45 4 33 13 65
21 71 8 7 15 18 15 25 0 18 20 24 48 13 30 -10 38 -5 45 28 3 17 -2 31 -16 44
-12 12 -17 25 -13 36 11 29 -12 79 -47 99 -17 10 -47 31 -65 47 -36 31 -89 38
-98 14 -3 -8 -12 -12 -20 -9 -8 3 -14 1 -14 -4 0 -5 -10 -9 -22 -10 -20 -2
-19 0 7 17 17 11 36 20 43 20 17 0 15 17 -4 24 -35 14 -63 5 -93 -29z m59
-301 c0 -8 -4 -12 -10 -9 -5 3 -10 10 -10 16 0 5 5 9 10 9 6 0 10 -7 10 -16z"/>
<path d="M50380 26760 c8 -5 31 -9 50 -9 29 0 31 2 15 9 -11 5 -33 9 -50 9
-23 1 -26 -2 -15 -9z"/>
<path d="M50645 26700 c3 -5 12 -10 20 -10 8 0 17 5 20 10 4 6 -5 10 -20 10
-15 0 -24 -4 -20 -10z"/>
<path d="M46673 26097 c-39 -57 -173 -288 -173 -297 0 -5 -6 -13 -13 -17 -7
-4 -31 -36 -53 -71 -21 -34 -51 -82 -66 -105 -15 -23 -39 -63 -52 -89 -14 -25
-37 -63 -51 -84 -38 -56 -31 -77 10 -30 32 36 175 259 175 272 0 3 13 24 29
47 29 44 149 238 195 319 15 26 26 56 24 68 -3 17 -6 16 -25 -13z"/>
<path d="M46206 25338 c-25 -35 -19 -46 9 -16 27 29 30 38 16 38 -6 0 -17 -10
-25 -22z"/>
<path d="M46305 24401 c-57 -27 -77 -52 -230 -291 -76 -118 -150 -233 -165
-256 -67 -101 -67 -209 1 -271 19 -17 574 -357 724 -443 17 -10 53 -31 80 -47
262 -158 292 -174 342 -179 57 -7 108 6 149 39 24 19 87 111 309 452 101 155
114 209 74 291 -21 45 -48 66 -214 164 -49 29 -151 90 -225 135 -334 202 -678
403 -709 414 -48 16 -90 13 -136 -8z m128 -57 c116 -59 1078 -644 1103 -672
45 -47 49 -84 20 -146 -13 -28 -95 -161 -182 -296 -179 -275 -193 -290 -283
-290 -49 0 -67 6 -141 48 -121 70 -948 566 -992 596 -49 33 -71 69 -71 115 0
46 11 66 160 298 177 274 207 317 243 341 39 26 97 29 143 6z"/>
<path d="M46788 23713 c7 -3 16 -2 19 1 4 3 -2 6 -13 5 -11 0 -14 -3 -6 -6z"/>
<path d="M46910 23640 c-13 -8 -13 -10 2 -10 9 0 20 5 23 10 8 13 -5 13 -25 0z"/>
<path d="M46790 23590 c-13 -8 -12 -10 3 -10 9 0 17 5 17 10 0 12 -1 12 -20 0z"/>
<path d="M50200 24370 c0 -5 5 -10 10 -10 6 0 10 5 10 10 0 6 -4 10 -10 10 -5
0 -10 -4 -10 -10z"/>
<path d="M50250 24325 c0 -8 5 -15 10 -15 6 0 10 7 10 15 0 8 -4 15 -10 15 -5
0 -10 -7 -10 -15z"/>
<path d="M50300 24333 c1 -14 27 -43 39 -43 19 0 12 17 -14 34 -14 9 -25 13
-25 9z"/>
<path d="M50275 24290 c-3 -5 -2 -10 4 -10 5 0 13 5 16 10 3 6 2 10 -4 10 -5
0 -13 -4 -16 -10z"/>
<path d="M50370 24283 c0 -12 -6 -24 -12 -26 -8 -3 -7 -6 4 -6 23 -1 31 15 19
36 -9 16 -10 16 -11 -4z"/>
<path d="M50405 24270 c3 -5 0 -18 -6 -28 -9 -14 -9 -24 -1 -38 10 -17 11 -17
12 -1 0 21 4 21 36 1 14 -10 23 -23 20 -30 -3 -9 2 -14 13 -14 10 0 30 -9 45
-21 14 -11 31 -17 37 -13 9 5 10 0 7 -14 -4 -15 -2 -22 7 -22 8 0 18 -8 24
-17 9 -16 11 -16 29 5 20 23 42 32 23 9 -13 -17 -5 -28 15 -20 10 4 12 0 7
-13 -5 -13 -3 -16 8 -12 9 4 21 -2 28 -13 13 -22 33 -17 24 6 -3 8 0 15 6 15
6 0 11 -9 11 -21 0 -15 4 -19 16 -15 13 5 15 2 11 -14 -6 -23 22 -43 48 -34 9
4 15 3 14 -2 -5 -27 2 -35 24 -29 17 5 18 4 7 -4 -12 -8 -9 -12 15 -22 17 -7
35 -11 41 -10 7 1 14 -7 16 -17 5 -19 45 -32 96 -32 24 0 25 -1 7 -13 -12 -10
-14 -16 -7 -21 7 -4 17 -4 22 -1 6 3 10 1 10 -5 0 -8 10 -10 28 -6 17 4 22 3
14 -2 -11 -7 -10 -10 3 -16 21 -8 37 2 28 17 -4 8 -1 7 9 -1 9 -7 20 -26 23
-42 8 -36 35 -49 36 -17 1 19 2 19 6 3 3 -10 17 -30 31 -43 19 -18 27 -20 34
-11 5 8 8 9 8 2 0 -7 8 -14 18 -17 9 -3 33 -16 51 -29 19 -12 32 -17 27 -10
-4 6 -4 12 1 12 4 0 16 12 26 25 17 24 17 26 2 42 -13 13 -21 14 -34 6 -14 -9
-21 -5 -40 22 -14 21 -28 32 -37 28 -8 -3 -14 1 -14 11 0 9 -6 16 -12 16 -7 0
-26 7 -42 15 -23 12 -32 13 -45 3 -14 -12 -15 -11 -1 6 13 16 12 20 -4 31 -10
8 -24 11 -32 8 -8 -3 -14 0 -14 5 0 6 -8 13 -17 16 -10 3 -31 17 -47 31 -16
13 -32 22 -36 20 -4 -3 -13 2 -20 10 -15 18 -34 20 -25 3 4 -7 -2 -3 -13 10
-11 12 -25 22 -32 22 -6 0 -8 5 -5 11 4 6 -2 13 -14 16 -12 3 -21 12 -21 20 0
10 -4 11 -19 3 -26 -14 -31 -13 -25 5 7 18 -7 20 -24 3 -10 -10 -15 -5 -25 21
-11 30 -15 32 -45 26 -31 -6 -32 -5 -26 20 5 20 3 24 -10 19 -9 -3 -13 -11 -9
-17 3 -6 -4 -3 -16 6 -13 8 -31 13 -40 10 -13 -5 -14 -3 -3 8 17 18 15 40 -3
33 -9 -4 -15 0 -16 7 0 8 -4 5 -8 -6 -7 -17 -8 -17 -14 8 -5 18 -12 24 -22 21
-8 -4 -15 -1 -15 5 0 6 -8 11 -17 11 -9 0 -25 8 -35 17 -10 9 -31 16 -47 16
-21 0 -28 4 -24 15 5 11 1 13 -15 7 -13 -4 -22 -2 -22 4 0 6 -7 11 -16 11 -8
0 -13 -4 -9 -10z m155 -89 c0 -10 -24 -21 -46 -21 -8 0 -14 5 -14 11 0 6 9 8
20 4 11 -4 20 -2 20 4 0 6 5 11 10 11 6 0 10 -4 10 -9z m696 -458 c-10 -10
-19 5 -10 18 6 11 8 11 12 0 2 -7 1 -15 -2 -18z"/>
<path d="M51435 23660 c3 -5 -1 -10 -9 -10 -29 0 -5 -26 42 -46 48 -20 78 -21
66 -2 -4 6 0 14 7 20 11 7 9 8 -6 6 -14 -3 -19 -10 -17 -23 4 -22 6 -23 -50
44 -18 21 -45 30 -33 11z m30 -20 c3 -5 -1 -10 -9 -10 -9 0 -16 5 -16 10 0 6
4 10 9 10 6 0 13 -4 16 -10z"/>
<path d="M51573 23593 c4 -3 -1 -12 -11 -19 -16 -13 -16 -13 1 -14 9 0 17 -4
17 -10 0 -5 7 -10 16 -10 10 0 12 4 7 13 -4 6 -6 20 -5 30 2 11 -3 17 -14 17
-10 0 -14 -3 -11 -7z"/>
<path d="M51622 23539 c2 -7 10 -15 17 -17 8 -3 12 1 9 9 -2 7 -10 15 -17 17
-8 3 -12 -1 -9 -9z"/>
<path d="M51695 23490 c3 -5 8 -10 11 -10 2 0 4 5 4 10 0 6 -5 10 -11 10 -5 0
-7 -4 -4 -10z"/>
<path d="M47845 23476 c-48 -21 -99 -87 -250 -322 -176 -273 -195 -308 -195
-360 0 -57 37 -122 91 -159 24 -17 224 -138 444 -269 220 -131 420 -251 445
-266 109 -68 202 -110 241 -110 44 0 102 21 133 48 27 24 333 485 367 554 46
90 36 171 -27 230 -26 24 -669 414 -978 593 -107 62 -126 70 -180 72 -37 2
-73 -2 -91 -11z m208 -80 c40 -24 279 -168 531 -321 253 -152 473 -287 489
-298 55 -41 74 -112 45 -168 -7 -13 -43 -69 -79 -124 -86 -130 -187 -285 -232
-358 -48 -75 -85 -97 -162 -97 -67 0 -68 0 -370 185 -88 54 -184 112 -213 129
-30 17 -61 36 -70 41 -9 6 -114 68 -232 139 -118 71 -234 142 -257 157 -49 34
-69 81 -55 131 7 28 179 302 345 551 40 59 96 90 150 82 21 -3 70 -25 110 -49z"/>
<path d="M51728 23473 c7 -3 16 -2 19 1 4 3 -2 6 -13 5 -11 0 -14 -3 -6 -6z"/>
<path d="M45644 23380 c-52 -26 -74 -55 -209 -265 -59 -93 -144 -226 -188
-295 -44 -69 -115 -179 -157 -245 -42 -66 -96 -151 -120 -189 -38 -59 -45 -78
-48 -130 -2 -50 2 -68 20 -101 26 -45 54 -62 573 -370 165 -98 329 -196 364
-218 175 -108 264 -115 348 -26 28 30 244 353 323 484 17 28 56 89 88 137 102
156 239 372 252 397 7 14 11 47 8 82 -6 83 -37 118 -184 205 -907 542 -911
544 -975 550 -42 4 -63 1 -95 -16z m146 -58 c121 -65 1009 -607 1027 -627 12
-14 28 -44 35 -66 17 -58 2 -93 -114 -269 -87 -133 -262 -401 -447 -688 -92
-141 -113 -157 -206 -157 -69 0 -72 1 -175 66 -157 98 -209 129 -219 129 -5 0
-11 4 -13 8 -1 5 -36 28 -76 53 -41 24 -88 53 -106 64 -19 11 -140 83 -270
159 -130 76 -245 150 -256 163 -33 42 -35 84 -7 140 14 27 92 152 174 278 82
127 215 334 296 461 146 229 183 279 222 295 35 14 100 10 135 -9z"/>
<path d="M49370 22548 c-35 -19 -58 -44 -115 -128 -130 -193 -285 -439 -300
-474 -32 -77 -8 -171 57 -219 45 -33 880 -533 1028 -615 101 -56 181 -51 250
16 44 43 368 531 386 582 27 74 10 142 -48 196 -18 17 -123 84 -233 149 -110
65 -249 148 -310 185 -136 83 -431 257 -506 299 -70 39 -143 42 -209 9z m180
-65 c25 -14 140 -82 255 -150 116 -69 253 -150 305 -181 52 -31 113 -67 136
-81 22 -14 103 -62 179 -106 76 -44 161 -101 187 -126 43 -42 48 -51 48 -91 0
-47 7 -35 -241 -418 -117 -181 -137 -203 -189 -219 -77 -23 -102 -13 -413 173
-72 43 -208 124 -302 179 -93 55 -186 110 -205 123 -19 12 -95 57 -169 100
-221 130 -221 134 -26 436 219 338 225 347 253 367 53 37 109 35 182 -6z"/>
<path d="M47135 22493 c-59 -31 -90 -72 -290 -383 -67 -104 -108 -168 -252
-390 -124 -192 -181 -293 -188 -332 -9 -47 9 -100 47 -144 25 -28 223 -155
375 -240 21 -12 173 -102 339 -201 166 -99 316 -185 334 -192 73 -25 148 -9
206 45 26 25 161 224 326 481 29 46 100 155 158 243 58 89 113 173 123 188 38
59 77 149 77 177 -1 39 -31 104 -61 131 -23 21 -204 132 -504 309 -82 48 -202
120 -265 158 -201 122 -295 167 -348 167 -26 -1 -60 -8 -77 -17z m170 -66 c22
-11 63 -34 90 -52 28 -18 232 -142 455 -276 223 -133 420 -253 437 -267 40
-30 73 -81 73 -114 0 -37 -29 -86 -222 -378 -96 -146 -236 -359 -312 -473
-117 -179 -141 -210 -173 -224 -64 -26 -121 -12 -258 66 -22 13 -44 27 -50 31
-5 4 -26 17 -45 27 -30 17 -137 81 -450 271 -41 25 -122 73 -181 107 -175 103
-209 132 -223 188 -12 50 7 83 394 674 69 105 151 231 182 280 75 114 101 143
146 159 43 14 81 9 137 -19z"/>
<path d="M44700 21911 c-49 -27 -63 -45 -185 -236 -60 -93 -132 -206 -160
-250 -202 -312 -339 -531 -351 -560 -28 -68 -9 -161 42 -206 17 -14 477 -292
575 -347 20 -11 94 -55 165 -97 71 -43 179 -107 239 -143 61 -35 126 -75 145
-87 79 -50 578 -344 617 -364 56 -28 121 -36 167 -21 47 15 56 30 12 20 -53
-12 -108 3 -188 50 -40 24 -215 127 -388 231 -379 225 -771 458 -1070 634
-121 72 -232 142 -247 157 -33 35 -43 110 -20 155 20 39 487 764 579 900 56
83 76 104 109 117 48 19 86 20 119 2 59 -31 108 -59 147 -84 53 -34 690 -417
816 -492 51 -30 115 -69 142 -86 28 -17 184 -111 347 -208 164 -98 311 -191
328 -207 16 -17 35 -49 42 -72 l12 -42 4 34 c11 107 -26 146 -298 308 -502
298 -567 337 -605 358 -22 13 -105 62 -185 111 -80 48 -154 92 -165 98 -35 20
-219 128 -255 151 -19 13 -69 42 -110 65 -41 24 -106 61 -144 84 -60 35 -79
41 -135 43 -50 3 -74 -1 -101 -16z"/>
<path d="M50941 21645 c-24 -7 -54 -24 -68 -37 -26 -24 -253 -361 -342 -507
-28 -46 -52 -96 -52 -110 -5 -88 12 -136 64 -175 28 -22 745 -456 752 -456 2
0 68 -39 146 -86 153 -92 202 -114 253 -114 38 0 106 30 126 56 14 17 14 18
-2 6 -28 -22 -81 -33 -131 -26 -38 5 -89 30 -230 116 -100 61 -195 118 -212
128 -16 10 -151 90 -300 180 -148 89 -294 176 -323 193 -100 59 -135 125 -100
190 31 60 363 554 382 569 34 29 92 41 131 28 18 -6 192 -107 387 -224 802
-483 762 -456 778 -517 15 -55 23 -49 18 14 -6 78 -38 113 -181 200 -285 172
-895 536 -932 554 -56 29 -112 35 -164 18z"/>
<path d="M48675 21625 c-5 -2 -22 -6 -37 -9 -63 -14 -102 -67 -465 -626 -291
-447 -299 -461 -287 -536 10 -70 57 -113 237 -221 89 -53 176 -104 194 -114
18 -10 49 -29 70 -42 97 -62 539 -321 576 -337 84 -38 172 -18 235 54 27 31
292 422 292 431 0 2 63 99 141 216 77 117 146 223 152 236 5 12 13 23 17 23
12 0 59 107 66 149 8 51 -22 120 -67 153 -19 14 -74 49 -124 78 -49 30 -128
77 -175 106 -47 28 -110 66 -140 83 -50 29 -151 89 -415 248 -146 87 -232 122
-270 108z m182 -121 c86 -51 313 -189 383 -233 14 -8 43 -25 66 -38 22 -12 81
-46 130 -77 49 -30 121 -73 159 -97 224 -136 250 -162 243 -237 -4 -42 -40
-100 -326 -530 -177 -265 -331 -491 -341 -501 -31 -31 -57 -41 -103 -41 -52 0
-106 25 -263 120 -66 40 -133 80 -150 90 -16 10 -95 58 -175 106 -80 49 -222
136 -316 192 -95 57 -186 117 -203 134 -44 43 -49 86 -17 151 14 28 166 264
338 522 345 518 339 511 430 501 34 -4 76 -22 145 -62z"/>
<path d="M49015 21005 l-30 -25 40 22 c50 27 51 28 34 28 -8 0 -27 -11 -44
-25z"/>
<path d="M49065 20958 c-22 -11 -45 -37 -45 -49 0 -5 11 3 25 16 13 14 31 25
39 25 8 0 18 5 21 10 8 13 -15 12 -40 -2z"/>
<path d="M49118 20880 c-33 -34 -35 -40 -23 -56 13 -18 14 -18 8 4 -3 12 -1
22 3 22 5 1 27 16 49 35 31 27 36 34 20 33 -11 0 -37 -18 -57 -38z"/>
<path d="M49193 20829 c-6 -6 -26 -15 -45 -19 l-33 -8 31 -1 c19 -1 38 7 49
19 19 21 17 28 -2 9z"/>
<path d="M48749 20523 l-24 -27 30 21 c17 12 44 23 60 26 28 4 28 4 -6 6 -27
1 -41 -5 -60 -26z"/>
<path d="M48857 20423 c-12 -12 -7 -22 8 -17 8 4 15 10 15 15 0 11 -14 12 -23
2z"/>
<path d="M48760 20371 c-36 -15 -85 -36 -110 -47 l-44 -20 24 -17 c59 -42 102
-67 113 -67 7 0 -10 13 -36 29 -26 15 -53 33 -60 40 -15 15 -6 21 98 62 44 17
84 35 90 40 16 15 -6 9 -75 -20z"/>
<path d="M44451 21000 c-14 -12 -18 -20 -10 -20 8 0 20 9 27 20 15 25 13 25
-17 0z"/>
<path d="M44425 20949 c-4 -6 -5 -12 -2 -15 2 -3 7 2 10 11 7 17 1 20 -8 4z"/>
<path d="M44486 20898 c-24 -34 -19 -40 10 -11 17 17 33 24 49 20 14 -2 22 0
19 4 -11 18 -63 9 -78 -13z"/>
<path d="M44385 20884 c-9 -14 -15 -27 -13 -30 2 -2 12 10 22 26 21 37 15 40
-9 4z"/>
<path d="M44587 20870 c8 -28 -25 -79 -60 -93 -28 -12 -29 -14 -11 -19 16 -4
29 6 60 49 48 66 49 69 26 75 -15 4 -18 1 -15 -12z"/>
<path d="M44667 20823 c-9 -16 -23 -35 -31 -42 -9 -8 -16 -20 -16 -29 0 -8 10
0 23 19 16 24 33 36 57 40 19 4 27 7 18 8 -9 0 -21 9 -26 18 -8 14 -12 12 -25
-14z"/>
<path d="M44452 20820 c0 -14 2 -19 5 -12 2 6 2 18 0 25 -3 6 -5 1 -5 -13z"/>
<path d="M50088 20719 c-47 -24 -82 -69 -230 -296 -64 -98 -192 -293 -283
-433 -213 -325 -219 -335 -213 -405 8 -98 3 -94 478 -375 124 -73 259 -153
300 -178 168 -101 290 -170 321 -181 42 -15 87 -13 124 4 l30 13 -50 1 c-60 1
-136 35 -310 140 -66 40 -127 76 -135 81 -28 16 -275 163 -360 215 -47 29
-130 79 -185 110 -167 97 -193 142 -141 244 13 26 115 186 228 356 112 171
236 359 274 418 137 216 169 247 248 247 45 0 82 -19 359 -187 103 -62 191
-113 196 -113 5 0 35 -18 67 -39 33 -21 75 -48 94 -58 47 -26 253 -148 312
-185 54 -34 118 -101 118 -124 0 -8 4 -12 10 -9 11 7 3 59 -16 96 -19 39 -79
87 -175 142 -46 26 -105 59 -130 75 -103 61 -275 164 -294 175 -11 7 -42 26
-70 43 -123 76 -366 215 -399 229 -49 21 -123 18 -168 -6z"/>
<path d="M52467 20726 c-22 -8 -50 -25 -64 -38 -44 -40 -382 -555 -394 -600
-14 -54 -7 -98 24 -143 29 -43 46 -55 222 -159 72 -42 137 -81 145 -86 19 -12
40 -24 360 -215 395 -236 377 -226 436 -233 42 -4 127 18 139 37 2 5 -26 6
-64 3 -86 -6 -98 0 -368 160 -114 68 -269 160 -343 204 -74 43 -143 84 -155
91 -11 7 -27 16 -35 20 -50 24 -279 168 -298 187 -31 31 -39 93 -18 134 9 18
82 132 163 255 80 122 156 238 169 258 36 58 79 83 139 82 54 -1 47 3 355
-179 74 -44 218 -129 320 -189 102 -60 229 -135 282 -167 54 -32 100 -58 103
-58 4 0 34 -21 67 -46 39 -30 67 -62 79 -88 l19 -41 0 41 c0 41 -32 103 -69
131 -13 11 -248 154 -308 188 -10 6 -101 60 -203 121 -238 142 -519 308 -546
322 -37 19 -116 23 -157 8z"/>
<path d="M44606 20723 c-11 -11 -6 -23 9 -23 8 0 15 4 15 9 0 13 -16 22 -24
14z"/>
<path d="M44733 20710 c-7 -11 -27 -24 -45 -29 -32 -9 -32 -9 -6 -10 25 -1 68
31 68 51 0 12 -4 10 -17 -12z"/>
<path d="M52144 20698 c-4 -7 -14 -24 -22 -38 -14 -24 -13 -24 3 -5 20 24 37
55 31 55 -3 0 -8 -6 -12 -12z"/>
<path d="M46924 20590 c-25 -13 -56 -41 -79 -73 -38 -53 -275 -416 -375 -573
-30 -48 -86 -135 -124 -193 -143 -219 -155 -248 -131 -327 8 -28 25 -60 37
-71 22 -21 283 -183 294 -183 3 0 29 -15 57 -34 29 -18 117 -71 197 -118 80
-47 224 -132 320 -189 157 -92 180 -103 232 -107 44 -3 67 1 103 18 50 24 90
76 259 337 49 76 114 176 145 223 30 47 98 151 152 231 173 262 190 306 155
390 -21 50 -56 79 -206 167 -74 43 -220 130 -325 192 -180 107 -232 138 -435
257 -47 27 -101 55 -119 61 -51 18 -111 14 -157 -8z m386 -180 c129 -79 305
-185 391 -236 392 -232 407 -242 435 -296 20 -39 17 -81 -8 -125 -12 -21 -90
-139 -172 -263 -82 -124 -216 -328 -298 -455 -82 -126 -159 -238 -171 -247
-78 -62 -131 -46 -410 122 -120 72 -226 134 -235 137 -9 4 -19 10 -22 13 -3 4
-99 62 -215 130 -284 167 -313 186 -336 223 -21 36 -24 78 -8 110 17 34 534
829 623 960 39 57 81 79 141 74 44 -3 80 -22 285 -147z"/>
<path d="M47220 19785 c-33 -19 -21 -19 21 0 19 8 27 14 19 14 -8 0 -26 -6
-40 -14z"/>
<path d="M47275 19490 c-13 -6 -15 -9 -5 -9 8 0 22 4 30 9 18 12 2 12 -25 0z"/>
<path d="M47205 19460 c-17 -7 -15 -9 13 -9 17 -1 32 4 32 9 0 12 -17 12 -45
0z"/>
<path d="M52067 20584 c-10 -13 -14 -24 -10 -24 9 0 36 40 31 45 -2 2 -11 -8
-21 -21z"/>
<path d="M52031 20527 c-13 -21 -12 -21 5 -5 10 10 16 20 13 22 -3 3 -11 -5
-18 -17z"/>
<path d="M51992 20470 c-18 -29 -15 -38 4 -12 9 13 14 25 12 27 -2 2 -9 -5
-16 -15z"/>
<path d="M43784 20466 c-44 -19 -66 -45 -159 -186 -108 -164 -484 -752 -519
-813 -76 -130 -45 -220 108 -309 39 -23 152 -89 251 -148 99 -59 403 -239 675
-400 272 -161 527 -311 565 -335 160 -97 464 -275 519 -304 39 -21 72 -31 100
-30 l41 0 -40 16 c-22 9 -107 57 -190 106 -82 49 -204 121 -270 159 -66 39
-140 83 -165 98 -57 35 -477 281 -635 373 -66 38 -136 80 -155 93 -32 21 -121
73 -277 163 -35 20 -104 60 -155 90 -334 196 -341 202 -359 262 -10 32 -8 43
15 90 14 30 39 74 55 99 17 25 41 63 54 85 13 22 79 126 147 230 67 105 151
235 187 290 35 55 91 142 124 193 100 155 151 168 308 76 53 -31 114 -68 136
-82 73 -47 666 -402 671 -402 2 0 44 -24 92 -54 93 -56 661 -395 952 -567 215
-126 236 -142 252 -185 23 -65 38 -27 18 46 -14 52 -68 97 -220 187 -173 102
-649 385 -805 478 -66 39 -185 110 -265 157 -80 48 -212 127 -295 176 -245
146 -513 301 -576 332 -65 33 -132 39 -185 16z"/>
<path d="M43922 20134 c-24 -17 -29 -53 -10 -72 27 -27 88 -3 88 34 0 15 -35
54 -48 54 -4 0 -18 -7 -30 -16z"/>
<path d="M50594 20098 c-44 -50 -47 -57 -25 -51 12 3 18 10 15 15 -3 5 4 20
17 34 12 13 20 24 17 24 -2 0 -13 -10 -24 -22z"/>
<path d="M50655 20040 c-4 -6 -11 -8 -16 -5 -5 4 -9 -3 -9 -14 0 -10 -13 -31
-30 -44 -30 -26 -39 -47 -20 -47 6 0 10 6 10 14 0 8 15 27 33 43 18 16 36 37
40 46 7 19 2 23 -8 7z"/>
<path d="M50513 20013 c-13 -8 -23 -22 -23 -29 0 -24 18 -15 34 16 8 17 14 30
13 29 -1 0 -12 -7 -24 -16z"/>
<path d="M51570 19840 c-19 -10 -47 -31 -61 -47 -38 -41 -616 -908 -652 -978
-39 -77 -27 -163 31 -217 22 -21 278 -179 417 -258 45 -26 238 -139 255 -150
8 -5 40 -24 70 -42 30 -17 100 -59 155 -91 148 -88 210 -104 280 -72 l30 13
-52 1 c-28 1 -72 10 -98 21 -26 11 -180 100 -344 197 -163 97 -368 219 -456
271 -218 130 -245 149 -261 189 -22 52 -6 92 107 258 56 83 205 304 330 491
208 312 232 344 272 363 50 24 84 26 124 9 15 -7 109 -61 207 -120 99 -60 181
-108 183 -108 3 0 24 -13 48 -30 24 -16 46 -30 49 -30 6 0 197 -113 238 -141
15 -11 30 -19 33 -19 4 0 30 -15 58 -34 29 -18 81 -51 117 -72 36 -21 89 -63
118 -92 58 -59 69 -49 30 28 -18 35 -40 56 -98 93 -67 44 -740 447 -745 447
-1 0 -44 25 -95 56 -145 88 -217 103 -290 64z"/>
<path d="M53970 19801 c-19 -11 -45 -30 -56 -43 -28 -30 -335 -491 -363 -543
-38 -72 -23 -167 36 -216 26 -22 405 -251 748 -452 66 -39 136 -80 155 -92
184 -115 241 -133 315 -101 30 12 29 13 -35 20 -43 5 -83 17 -120 38 -76 42
-933 553 -998 595 -77 49 -99 110 -66 176 28 55 335 510 368 545 38 40 92 57
144 43 33 -9 247 -130 407 -231 33 -21 165 -100 293 -176 368 -219 374 -224
425 -266 49 -41 61 -34 33 20 -26 51 -26 51 -735 472 -373 222 -389 230 -459
230 -36 -1 -70 -8 -92 -19z"/>
<path d="M48404 19716 c-51 -22 -86 -71 -410 -571 -40 -61 -120 -184 -179
-275 -124 -189 -135 -212 -135 -275 0 -53 16 -89 57 -126 25 -23 308 -194 693
-419 69 -41 157 -92 195 -115 97 -58 144 -81 184 -89 38 -7 97 6 126 29 19 14
18 15 -8 5 -78 -28 -111 -14 -399 158 -351 209 -533 317 -543 322 -44 22 -185
111 -216 138 -76 65 -66 106 77 323 346 528 538 811 559 825 40 26 94 34 136
20 20 -7 122 -65 226 -128 103 -63 292 -177 418 -253 127 -75 252 -150 278
-166 27 -16 52 -29 56 -29 10 0 87 -82 100 -107 6 -12 11 -31 11 -43 0 -12 5
-18 10 -15 15 9 12 92 -4 123 -24 46 -65 77 -256 193 -321 194 -743 441 -795
465 -57 27 -132 31 -181 10z"/>
<path d="M50280 19670 c-13 -9 -13 -10 0 -10 8 0 22 5 30 10 13 9 13 10 0 10
-8 0 -22 -5 -30 -10z"/>
<path d="M50290 19531 c-16 -5 -21 -9 -13 -14 7 -5 25 -1 40 7 29 16 16 19
-27 7z"/>
<path d="M43590 19430 c-8 -5 -10 -10 -5 -10 6 0 17 5 25 10 8 5 11 10 5 10
-5 0 -17 -5 -25 -10z"/>
<path d="M43684 19394 c3 -8 1 -25 -5 -37 -9 -19 -7 -18 10 3 25 30 27 50 5
50 -11 0 -14 -5 -10 -16z"/>
<path d="M50205 19381 c-29 -6 -29 -7 -7 -13 26 -7 52 -1 52 13 0 10 -1 10
-45 0z"/>
<path d="M43552 19350 c0 -19 2 -27 5 -17 2 9 2 25 0 35 -3 9 -5 1 -5 -18z"/>
<path d="M43743 19325 c-31 -47 -29 -58 3 -17 14 17 32 32 40 32 8 0 12 5 9
10 -12 19 -30 10 -52 -25z"/>
<path d="M43633 19311 c-12 -10 -19 -21 -16 -25 11 -11 20 -6 37 19 19 29 10
32 -21 6z"/>
<path d="M43696 19245 c-10 -15 -15 -29 -12 -33 3 -3 6 0 6 7 0 8 8 11 20 8
21 -5 23 -2 11 27 -6 17 -9 16 -25 -9z"/>
<path d="M43831 19246 c-8 -14 -22 -28 -33 -32 -10 -3 -18 -10 -18 -15 0 -13
30 3 54 29 10 12 16 26 14 32 -2 7 -10 0 -17 -14z"/>
<path d="M52044 19255 c-17 -13 -16 -14 16 -5 19 6 42 7 51 5 10 -3 20 -1 24
5 10 16 -68 12 -91 -5z"/>
<path d="M43913 19245 c-3 -9 -3 -18 -1 -21 3 -3 8 4 11 16 6 23 -1 27 -10 5z"/>
<path d="M52118 19233 c7 -3 16 -2 19 1 4 3 -2 6 -13 5 -11 0 -14 -3 -6 -6z"/>
<path d="M52045 19160 c-3 -5 -2 -10 4 -10 5 0 13 5 16 10 3 6 2 10 -4 10 -5
0 -13 -4 -16 -10z"/>
<path d="M43926 19129 c-11 -10 -16 -19 -12 -19 14 0 46 21 46 30 0 15 -13 11
-34 -11z"/>
<path d="M52035 19119 c-9 -14 -2 -20 14 -10 8 6 9 11 3 15 -6 3 -14 1 -17 -5z"/>
<path d="M44174 19084 c-18 -14 -18 -15 4 -4 12 6 22 13 22 15 0 8 -5 6 -26
-11z"/>
<path d="M44085 19079 c-4 -6 -5 -12 -2 -15 2 -3 7 2 10 11 7 17 1 20 -8 4z"/>
<path d="M44140 19041 c-13 -26 -13 -48 1 -57 7 -4 10 -1 7 7 -3 8 -1 26 3 42
9 32 4 35 -11 8z"/>
<path d="M42898 19041 c-65 -21 -92 -48 -182 -186 -81 -122 -128 -195 -296
-459 -94 -148 -228 -364 -240 -386 -22 -42 -30 -93 -19 -133 19 -72 20 -72
569 -397 96 -57 281 -166 410 -243 129 -77 249 -148 265 -157 17 -10 83 -49
149 -89 65 -39 120 -71 122 -71 2 0 36 -20 76 -44 40 -24 174 -103 298 -176
124 -73 356 -211 515 -305 520 -308 502 -299 566 -303 31 -2 64 0 74 5 13 8 6
10 -27 9 -30 -1 -61 8 -103 29 -60 31 -299 168 -365 210 -19 12 -73 45 -120
72 -87 51 -640 376 -834 491 -60 35 -125 71 -145 79 -19 8 -40 21 -46 28 -10
12 -131 85 -560 335 -115 68 -264 155 -330 195 -66 39 -187 111 -270 160 -183
108 -215 137 -215 194 0 23 7 56 16 74 20 39 138 227 250 398 45 70 126 196
179 280 194 309 209 326 282 336 49 6 118 -24 275 -124 58 -37 130 -83 160
-100 91 -56 655 -390 703 -417 28 -16 121 -72 180 -108 28 -17 167 -99 310
-183 263 -154 510 -300 687 -406 54 -33 102 -59 108 -59 5 0 29 -14 52 -31 24
-17 117 -74 208 -126 91 -52 189 -111 218 -131 95 -65 115 -146 58 -233 -14
-21 -26 -42 -26 -46 1 -15 42 43 66 92 41 85 28 161 -37 221 -19 17 -113 77
-209 134 -96 57 -285 168 -420 248 -135 80 -257 152 -272 161 -79 46 -553 327
-683 404 -82 50 -166 99 -185 110 -19 10 -127 75 -240 142 -308 185 -737 434
-810 471 -72 37 -121 47 -162 35z"/>
<path d="M44242 18989 c-13 -16 -33 -29 -44 -29 -12 0 -19 -3 -15 -6 12 -13
55 6 72 32 23 36 15 37 -13 3z"/>
<path d="M51946 19004 c-3 -9 -6 -18 -6 -20 0 -5 58 -3 83 3 32 8 17 22 -18
16 -23 -4 -35 -2 -35 6 0 17 -17 13 -24 -5z"/>
<path d="M44330 19000 c-8 -5 -12 -11 -10 -14 3 -2 14 2 24 10 22 15 10 19
-14 4z"/>
<path d="M53044 18965 c-17 -8 -49 -34 -70 -58 -49 -56 -633 -927 -656 -980
-32 -70 -15 -162 38 -208 11 -9 177 -110 369 -224 193 -114 397 -235 455 -270
204 -121 218 -127 287 -123 35 2 69 10 75 17 11 11 8 12 -15 7 -67 -16 -111 6
-637 322 -157 94 -325 195 -375 224 -117 69 -152 101 -165 149 -17 61 -11 71
256 459 55 80 164 240 243 357 157 233 197 280 247 289 74 14 57 22 539 -271
143 -87 305 -185 360 -217 192 -115 263 -168 278 -211 2 -7 7 -9 11 -6 12 12
-13 87 -41 119 -15 18 -208 140 -467 294 -557 333 -582 346 -649 345 -29 0
-66 -7 -83 -14z"/>
<path d="M44296 18955 c-3 -9 -6 -26 -5 -38 1 -14 4 -9 9 13 9 37 7 52 -4 25z"/>
<path d="M44475 18949 c-4 -6 -5 -12 -2 -15 2 -3 7 2 10 11 7 17 1 20 -8 4z"/>
<path d="M46364 18932 c-22 -11 -54 -37 -70 -58 -43 -55 -292 -435 -574 -876
-58 -92 -65 -106 -68 -164 -7 -104 21 -134 260 -273 46 -26 169 -99 273 -161
229 -136 215 -127 398 -233 153 -89 215 -109 267 -88 24 9 23 10 -12 10 -55 1
-83 17 -859 478 -125 74 -240 148 -255 164 -57 60 -41 111 104 332 31 48 116
177 187 287 72 110 174 268 227 350 54 82 109 157 123 166 14 9 44 19 68 21
36 4 55 -2 128 -39 46 -25 109 -61 139 -80 50 -33 301 -182 540 -321 233 -136
281 -169 311 -210 26 -35 30 -50 27 -89 -4 -56 5 -54 21 5 17 58 0 120 -42
162 -18 17 -156 105 -307 195 -151 90 -342 204 -425 253 -247 147 -308 178
-367 183 -39 4 -64 0 -94 -14z"/>
<path d="M44442 18896 c-9 -20 -8 -25 9 -29 12 -3 19 0 19 9 0 8 5 14 11 14 8
0 8 5 -1 15 -17 21 -25 19 -38 -9z"/>
<path d="M55535 18906 c-83 -26 -83 -26 -340 -406 -131 -195 -145 -221 -145
-280 0 -91 22 -115 210 -225 63 -37 131 -78 150 -90 48 -31 405 -242 460 -273
25 -13 52 -30 60 -37 34 -27 248 -145 264 -145 27 0 18 36 -11 49 -16 7 -95
52 -178 101 -82 48 -280 163 -440 255 -422 244 -423 245 -450 277 -44 52 -36
89 48 219 218 339 306 465 335 482 47 27 108 22 176 -14 33 -17 166 -94 295
-170 l236 -138 3 31 c2 17 -2 36 -10 43 -29 26 -525 314 -550 319 -63 13 -75
14 -113 2z"/>
<path d="M48765 18873 c-16 -14 -52 -46 -80 -72 -75 -70 -121 -102 -137 -96
-18 7 -33 -24 -19 -38 8 -8 96 61 186 146 36 34 65 49 80 43 11 -4 15 1 15 19
0 31 -7 31 -45 -2z"/>
<path d="M49895 18848 c-49 -17 -91 -64 -193 -218 -53 -80 -99 -149 -102 -155
-6 -12 -326 -496 -337 -510 -17 -22 -81 -122 -97 -153 -21 -41 -23 -120 -3
-158 8 -16 28 -41 44 -55 26 -24 158 -109 169 -109 2 0 68 -38 145 -85 78 -47
143 -85 146 -85 3 0 17 -8 31 -19 37 -26 457 -273 509 -300 49 -24 134 -28
172 -7 22 12 20 13 -26 9 -40 -4 -63 0 -114 23 -35 15 -71 33 -79 39 -8 7 -35
24 -60 37 -25 14 -117 69 -205 123 -88 54 -214 129 -280 167 -319 186 -393
234 -411 269 -18 35 -18 70 0 114 18 42 608 929 644 968 57 61 122 73 195 36
23 -12 100 -58 172 -102 71 -44 256 -156 410 -248 154 -92 311 -187 348 -211
77 -48 127 -108 127 -151 0 -16 4 -26 10 -22 15 9 12 102 -4 133 -8 15 -27 39
-43 53 -24 23 -530 329 -877 532 -167 97 -216 111 -291 85z"/>
<path d="M44482 18800 c0 -14 2 -19 5 -12 2 6 2 18 0 25 -3 6 -5 1 -5 -13z"/>
<path d="M51712 18707 c-116 -59 -141 -77 -107 -77 8 0 15 4 15 9 0 14 176
101 204 101 25 0 35 13 18 24 -4 2 -63 -23 -130 -57z"/>
<path d="M48837 18670 c-45 -47 -84 -80 -96 -80 -25 0 -37 -18 -22 -33 9 -9
35 12 108 86 52 54 94 100 91 102 -2 3 -39 -31 -81 -75z"/>
<path d="M51735 18580 c-3 -5 -1 -10 4 -10 6 0 11 5 11 10 0 6 -2 10 -4 10 -3
0 -8 -4 -11 -10z"/>
<path d="M49355 18479 c-4 -6 -5 -12 -2 -15 2 -3 7 2 10 11 7 17 1 20 -8 4z"/>
<path d="M53466 18431 c-3 -4 6 -6 19 -3 14 2 25 6 25 8 0 8 -39 4 -44 -5z"/>
<path d="M49310 18410 c-6 -11 -8 -20 -6 -20 3 0 10 9 16 20 6 11 8 20 6 20
-3 0 -10 -9 -16 -20z"/>
<path d="M49265 18344 c-9 -15 -12 -23 -6 -20 11 7 35 46 28 46 -3 0 -12 -12
-22 -26z"/>
<path d="M53505 18253 c-77 -52 -132 -93 -122 -89 16 5 248 157 272 178 5 5 5
8 0 7 -6 0 -73 -43 -150 -96z"/>
<path d="M53485 18320 c-16 -7 -17 -9 -3 -9 9 -1 20 4 23 9 7 11 7 11 -20 0z"/>
<path d="M49120 18130 c-66 -101 -119 -184 -117 -187 6 -5 207 293 207 307 0
5 3 10 8 10 10 0 35 41 28 47 -2 3 -59 -77 -126 -177z"/>
<path d="M53526 18187 c-16 -12 -13 -13 19 -9 26 3 33 7 24 13 -19 12 -22 11
-43 -4z"/>
<path d="M46725 18117 c-24 -13 -208 -152 -247 -186 -36 -32 -28 -39 11 -11
18 14 38 21 51 17 17 -4 19 -3 10 8 -8 10 9 29 79 84 88 70 115 83 124 59 3
-7 6 -3 6 9 1 28 -9 34 -34 20z"/>
<path d="M54541 18098 c-74 -21 -92 -43 -333 -397 -479 -705 -476 -698 -427
-798 15 -31 37 -53 81 -80 33 -21 74 -47 91 -58 18 -11 133 -81 257 -154 124
-74 297 -177 384 -229 197 -117 270 -152 318 -152 71 0 71 11 2 36 -57 19
-217 107 -344 189 -19 12 -111 67 -205 122 -428 252 -514 306 -529 328 -36 55
-18 121 69 245 84 121 305 445 415 610 177 265 183 272 258 290 61 15 7 44
758 -405 182 -108 348 -213 369 -232 44 -40 56 -36 31 12 -33 61 -25 56 -486
329 -91 54 -199 119 -240 144 -41 25 -88 53 -105 62 -16 9 -73 42 -127 73
-129 74 -168 85 -237 65z"/>
<path d="M42540 18075 c-11 -13 -11 -20 0 -40 7 -14 16 -23 19 -20 2 3 -1 11
-7 17 -19 19 -14 38 11 48 15 6 17 9 6 9 -9 1 -22 -6 -29 -14z"/>
<path d="M53545 18080 c-16 -7 -17 -9 -3 -9 9 -1 20 4 23 9 7 11 7 11 -20 0z"/>
<path d="M47852 18069 c-54 -16 -99 -72 -287 -359 -98 -151 -230 -353 -293
-448 -62 -96 -123 -192 -134 -214 -32 -60 -34 -115 -6 -168 29 -57 55 -74 503
-336 39 -22 133 -78 210 -124 77 -45 165 -96 195 -113 30 -17 71 -40 90 -52
19 -11 48 -26 63 -33 34 -14 127 -16 127 -2 0 6 -11 10 -25 10 -39 0 -75 18
-265 130 -96 57 -203 120 -237 139 -306 177 -572 343 -602 375 -31 33 -38 94
-16 137 17 33 611 928 637 959 28 34 63 50 112 50 53 0 125 -34 271 -128 38
-25 151 -94 250 -152 520 -308 580 -349 606 -411 6 -16 16 -26 21 -23 14 9 0
73 -24 113 -20 31 -116 100 -228 163 -42 23 -145 84 -530 313 -246 146 -300
173 -355 179 -27 3 -65 1 -83 -5z"/>
<path d="M46741 18044 c0 -11 3 -14 6 -6 3 7 2 16 -1 19 -3 4 -6 -2 -5 -13z"/>
<path d="M42674 18002 c-11 -17 -12 -23 -3 -16 8 7 21 13 31 15 13 3 14 6 3
16 -11 10 -17 7 -31 -15z"/>
<path d="M46728 17997 c-3 -19 -2 -25 4 -19 6 6 8 18 6 28 -3 14 -5 12 -10 -9z"/>
<path d="M50180 17989 c0 -5 5 -7 10 -4 6 3 10 8 10 11 0 2 -4 4 -10 4 -5 0
-10 -5 -10 -11z"/>
<path d="M42571 17978 c-1 -9 -9 -22 -18 -27 -17 -10 -17 -10 0 -11 19 0 32
22 24 42 -4 8 -6 7 -6 -4z"/>
<path d="M51343 17960 c-53 -27 -77 -60 -390 -530 -320 -481 -321 -483 -335
-535 -15 -57 3 -119 47 -160 17 -16 146 -98 286 -181 301 -179 625 -370 691
-409 35 -19 66 -28 110 -31 57 -3 60 -2 33 8 -62 25 -224 113 -360 195 -77 47
-164 99 -195 115 -30 16 -84 47 -120 70 -36 22 -128 79 -205 125 -194 119
-220 138 -235 173 -22 54 8 122 139 310 61 87 257 379 417 619 99 150 144 191
205 191 46 0 125 -40 344 -173 88 -54 167 -102 175 -107 8 -5 58 -34 110 -64
400 -234 473 -281 498 -326 20 -35 32 -38 32 -10 0 30 -25 81 -54 112 -14 14
-76 56 -138 93 -62 37 -129 78 -148 90 -122 76 -645 383 -715 418 -60 30 -140
33 -192 7z"/>
<path d="M46717 17953 c-4 -3 -7 -18 -6 -32 1 -26 1 -25 10 3 9 31 7 41 -4 29z"/>
<path d="M42824 17905 c-9 -14 -15 -28 -12 -30 2 -2 12 9 22 25 21 36 13 40
-10 5z"/>
<path d="M42736 17903 c-6 -14 -5 -15 5 -6 7 7 10 15 7 18 -3 3 -9 -2 -12 -12z"/>
<path d="M53235 17910 c-3 -6 1 -7 9 -4 18 7 21 14 7 14 -6 0 -13 -4 -16 -10z"/>
<path d="M42895 17900 c3 -5 8 -10 11 -10 2 0 4 5 4 10 0 6 -5 10 -11 10 -5 0
-7 -4 -4 -10z"/>
<path d="M50115 17879 l-20 -21 28 13 c24 11 32 10 66 -9 56 -32 63 -27 11 8
-53 35 -58 36 -85 9z"/>
<path d="M42915 17880 c-3 -5 1 -10 9 -10 9 0 16 5 16 10 0 6 -4 10 -9 10 -6
0 -13 -4 -16 -10z"/>
<path d="M46659 17869 c32 -19 33 -22 27 -67 -6 -56 7 -19 18 47 6 38 5 42 -8
32 -11 -9 -20 -10 -35 -2 -35 19 -37 12 -2 -10z"/>
<path d="M42776 17828 l-18 -33 21 25 c18 22 26 40 18 40 -1 0 -11 -15 -21
-32z"/>
<path d="M53185 17810 c3 -5 8 -10 11 -10 2 0 4 5 4 10 0 6 -5 10 -11 10 -5 0
-7 -4 -4 -10z"/>
<path d="M50061 17744 c13 -16 89 -58 94 -52 1 2 -22 18 -52 35 -30 18 -49 26
-42 17z"/>
<path d="M53145 17640 c-22 -4 -31 -8 -20 -10 28 -3 48 0 60 11 5 5 7 8 5 8
-3 -1 -23 -5 -45 -9z"/>
<path d="M41940 17597 c-53 -28 -51 -26 -416 -597 -152 -239 -296 -464 -319
-500 -92 -142 -106 -201 -62 -272 27 -45 46 -60 172 -133 55 -32 116 -68 135
-80 80 -51 679 -401 720 -421 91 -44 162 -38 225 17 37 33 165 221 401 592 27
43 79 124 115 180 37 56 105 161 152 234 104 160 115 180 123 231 8 51 -9 104
-48 142 -16 16 -107 76 -201 132 -639 378 -719 424 -790 462 -84 44 -142 48
-207 13z m241 -103 c154 -89 830 -488 878 -518 22 -14 48 -37 57 -52 24 -36
30 -114 11 -151 -15 -29 -294 -466 -461 -723 -45 -69 -120 -185 -166 -259 -47
-74 -100 -150 -119 -169 -32 -32 -37 -34 -90 -30 -51 4 -81 19 -326 163 -148
87 -322 188 -385 225 -63 37 -167 97 -230 134 -144 84 -181 118 -187 177 -5
51 -21 24 312 544 119 187 224 353 233 369 22 37 22 37 123 191 48 72 99 138
115 148 53 32 116 19 235 -49z"/>
<path d="M41589 16414 c-16 -20 -9 -23 19 -9 18 10 20 14 8 18 -8 3 -20 -1
-27 -9z"/>
<path d="M41555 16360 c-3 -5 -1 -10 4 -10 6 0 11 5 11 10 0 6 -2 10 -4 10 -3
0 -8 -4 -11 -10z"/>
<path d="M55010 17480 c-19 -11 -31 -19 -27 -20 11 0 67 29 67 35 0 7 -1 7
-40 -15z"/>
<path d="M54934 17434 c-18 -14 -18 -15 4 -4 12 6 22 13 22 15 0 8 -5 6 -26
-11z"/>
<path d="M48144 17254 c-18 -14 -18 -15 6 -7 14 4 39 7 57 7 18 0 30 3 27 8
-9 14 -69 9 -90 -8z"/>
<path d="M55975 17214 c-46 -24 -72 -52 -139 -148 -33 -49 -77 -112 -96 -140
-191 -274 -474 -696 -495 -737 -22 -41 -19 -127 4 -166 23 -37 58 -62 256
-178 83 -48 193 -114 245 -145 158 -95 414 -246 438 -259 20 -11 22 -9 22 12
0 26 -66 68 -550 352 -382 223 -390 230 -390 306 0 47 16 74 247 402 40 56
117 167 171 247 198 289 217 317 242 346 69 81 131 95 222 49 27 -14 52 -25
54 -25 2 0 4 13 4 29 0 24 -7 32 -45 50 -54 25 -146 28 -190 5z"/>
<path d="M49314 17197 c-55 -21 -90 -60 -179 -197 -49 -74 -189 -287 -312
-473 -123 -185 -231 -353 -239 -372 -30 -73 -3 -163 64 -208 39 -26 243 -149
377 -227 79 -46 401 -236 460 -271 154 -92 214 -115 270 -105 17 4 39 12 49
19 16 11 11 13 -32 13 -54 0 -110 25 -277 124 -49 29 -103 61 -120 70 -16 10
-88 53 -160 95 -197 118 -467 275 -472 275 -18 0 -103 75 -113 101 -24 57 -4
98 194 399 103 157 194 294 202 305 8 11 59 88 113 170 121 182 136 202 175
226 64 39 112 25 291 -85 61 -37 117 -71 125 -76 8 -5 74 -44 145 -86 72 -43
227 -136 345 -206 234 -140 286 -183 297 -250 7 -46 23 -33 23 20 0 84 -43
129 -225 237 -71 42 -177 105 -235 140 -102 60 -370 219 -518 305 -118 69
-179 83 -248 57z"/>
<path d="M48116 17177 c3 -10 9 -15 12 -12 3 3 0 11 -7 18 -10 9 -11 8 -5 -6z"/>
<path d="M51666 17174 c-5 -12 -2 -15 10 -10 8 3 20 6 25 6 6 0 7 5 4 10 -10
15 -32 12 -39 -6z"/>
<path d="M48130 17142 c0 -4 14 -21 32 -38 l31 -29 -22 32 c-23 35 -41 50 -41
35z"/>
<path d="M51625 17120 c-3 -5 -1 -10 4 -10 6 0 11 5 11 10 0 6 -2 10 -4 10 -3
0 -8 -4 -11 -10z"/>
<path d="M52814 17094 c-59 -29 -56 -25 -438 -594 -61 -91 -121 -178 -132
-195 -78 -111 -154 -236 -164 -272 -22 -73 16 -155 93 -201 18 -11 145 -86
282 -167 138 -81 342 -202 455 -269 113 -67 218 -127 233 -134 15 -6 54 -12
85 -11 l57 0 -58 19 c-60 19 -67 23 -422 233 -703 417 -693 410 -681 490 6 38
73 151 165 282 28 39 147 214 266 391 118 176 229 333 245 349 23 22 42 29 85
33 52 4 60 1 157 -54 57 -32 133 -77 171 -101 37 -24 69 -43 71 -43 2 0 44
-24 92 -54 49 -29 179 -106 289 -171 249 -146 295 -177 341 -227 19 -22 38
-37 41 -34 12 12 -9 74 -37 108 -16 20 -51 48 -77 63 -77 45 -577 341 -708
420 -212 128 -270 155 -328 155 -29 0 -66 -7 -83 -16z"/>
<path d="M51606 17083 c-6 -14 -5 -15 5 -6 7 7 10 15 7 18 -3 3 -9 -2 -12 -12z"/>
<path d="M46189 17080 c-14 -4 -37 -15 -52 -25 -25 -16 -167 -223 -403 -587
-286 -441 -288 -443 -281 -511 8 -91 23 -102 557 -417 96 -57 213 -126 260
-153 266 -157 308 -174 379 -155 52 14 60 27 13 21 -59 -8 -94 8 -315 141
-111 67 -332 200 -492 296 -159 95 -305 188 -322 206 -42 41 -44 88 -6 153 14
25 144 224 288 441 144 217 272 412 284 432 12 21 41 53 64 73 35 30 48 35 92
35 48 0 64 -8 216 -100 90 -54 198 -119 239 -143 41 -24 154 -90 250 -146 288
-169 308 -181 354 -222 30 -27 51 -57 64 -91 l19 -52 7 31 c10 42 -9 105 -40
143 -22 25 -115 87 -219 144 -11 6 -153 90 -315 187 -376 224 -429 255 -493
284 -52 25 -100 30 -148 15z"/>
<path d="M51582 17048 c-17 -17 -15 -25 8 -31 21 -5 26 8 12 30 -6 10 -11 10
-20 1z"/>
<path d="M47992 17010 c7 -11 18 -22 26 -25 8 -3 6 4 -5 20 -21 29 -38 34 -21
5z"/>
<path d="M51749 17014 c-10 -12 -27 -15 -73 -12 -34 2 -61 -1 -63 -7 -2 -6 23
-10 62 -10 47 0 69 4 82 17 9 10 14 20 11 23 -3 3 -11 -2 -19 -11z"/>
<path d="M54730 17000 c-20 -6 -21 -8 -5 -8 11 0 29 3 40 8 25 11 -1 11 -35 0z"/>
<path d="M51536 16984 c-5 -14 -4 -15 9 -4 17 14 19 20 6 20 -5 0 -12 -7 -15
-16z"/>
<path d="M45765 16895 c-31 -48 -54 -89 -52 -91 2 -2 29 35 60 83 32 47 55 88
53 91 -3 2 -30 -35 -61 -83z"/>
<path d="M48131 16968 c-19 -5 -45 -8 -58 -5 -12 2 -20 1 -18 -3 10 -15 61
-18 87 -4 16 8 28 17 28 19 0 3 -1 5 -2 4 -2 0 -19 -5 -37 -11z"/>
<path d="M54619 16948 c-8 -30 -5 -35 29 -36 19 -1 33 0 31 1 -19 14 -59 37
-60 35z"/>
<path d="M45676 16760 c-9 -17 -14 -30 -9 -30 8 0 35 51 30 56 -2 2 -11 -10
-21 -26z"/>
<path d="M43452 16749 c-59 -12 -97 -50 -183 -181 -46 -70 -144 -219 -217
-331 -72 -111 -141 -215 -151 -232 -10 -16 -48 -75 -83 -130 -240 -372 -238
-370 -238 -431 0 -42 30 -100 69 -131 23 -18 126 -80 361 -218 30 -18 118 -70
195 -115 77 -46 165 -98 195 -115 30 -18 99 -57 152 -89 105 -61 175 -82 223
-67 l30 9 -36 1 c-40 1 -91 26 -268 130 -64 37 -199 117 -301 176 -396 232
-517 305 -539 329 -31 33 -38 93 -16 137 10 19 55 90 100 159 45 69 119 184
165 255 46 72 111 173 145 225 33 52 117 183 186 289 68 107 139 210 156 228
38 37 90 50 139 35 28 -8 118 -56 174 -92 18 -12 260 -154 475 -280 88 -51
193 -113 233 -136 40 -24 76 -44 80 -44 18 0 84 -65 102 -101 24 -46 25 -83 2
-127 -18 -34 -201 -318 -428 -662 -74 -113 -139 -214 -144 -225 -6 -11 -24
-40 -40 -65 -42 -65 -54 -87 -42 -75 11 10 284 421 433 652 42 65 106 163 142
218 108 167 127 206 127 259 0 68 -30 115 -104 163 -86 57 -864 516 -941 556
-48 25 -109 35 -153 26z"/>
<path d="M54603 16733 c9 -2 23 -2 30 0 6 3 -1 5 -18 5 -16 0 -22 -2 -12 -5z"/>
<path d="M45640 16705 c-7 -9 -10 -18 -7 -21 3 -3 10 4 17 15 13 25 8 27 -10
6z"/>
<path d="M45599 16643 c-7 -16 -34 -57 -60 -93 -53 -76 -196 -295 -222 -342
l-19 -33 31 35 c17 19 31 39 31 46 0 6 9 19 20 29 11 10 20 21 20 25 0 4 45
75 100 159 55 83 100 154 100 158 0 3 7 15 17 25 9 10 12 18 6 18 -5 0 -16
-12 -24 -27z"/>
<path d="M49583 16418 c-23 -30 -26 -42 -5 -24 19 17 27 18 59 8 31 -10 34 -9
22 3 -21 21 -64 28 -76 13z"/>
<path d="M50765 16321 c-57 -25 -81 -57 -287 -363 -466 -698 -448 -668 -448
-737 0 -82 26 -112 170 -198 52 -31 150 -89 217 -130 68 -40 125 -73 129 -73
3 0 24 -13 47 -29 91 -62 500 -291 538 -301 41 -11 114 -5 124 9 2 5 -21 11
-51 14 -31 3 -63 12 -73 19 -9 7 -25 18 -36 24 -53 29 -391 227 -400 234 -5 5
-122 74 -260 155 -283 167 -317 190 -339 227 -35 57 -23 85 133 313 45 66 172
255 283 420 110 165 214 314 230 331 37 40 105 61 147 46 31 -11 109 -55 356
-202 77 -46 157 -93 177 -104 21 -12 135 -79 255 -151 213 -128 257 -160 301
-220 l21 -30 1 28 c0 34 -30 94 -62 124 -12 12 -99 66 -193 121 -93 55 -201
120 -240 144 -38 24 -80 49 -93 55 -13 7 -72 41 -130 76 -184 110 -326 189
-366 203 -52 19 -103 17 -151 -5z"/>
<path d="M53140 16323 c0 -4 14 -16 30 -25 17 -9 30 -14 30 -10 0 4 -13 16
-30 25 -16 10 -30 15 -30 10z"/>
<path d="M46500 16286 c0 -2 16 -14 36 -25 40 -24 59 -23 22 1 -25 16 -58 29
-58 24z"/>
<path d="M49490 16279 c0 -5 5 -7 10 -4 6 3 10 8 10 11 0 2 -4 4 -10 4 -5 0
-10 -5 -10 -11z"/>
<path d="M53210 16273 c0 -5 18 -16 40 -25 48 -20 52 -15 8 12 -35 21 -48 25
-48 13z"/>
<path d="M46604 16221 c21 -23 26 -26 26 -11 0 5 -10 15 -22 21 -23 12 -23 12
-4 -10z"/>
<path d="M54275 16225 c-28 -12 -125 -106 -125 -120 0 -4 -15 -28 -33 -54
-149 -206 -554 -811 -572 -855 -28 -68 -13 -148 36 -192 24 -21 114 -76 349
-214 69 -40 141 -83 160 -95 51 -32 256 -152 397 -233 122 -69 189 -91 221
-73 15 9 15 10 -4 11 -33 0 -148 63 -544 299 -513 306 -514 307 -550 348 -61
69 -53 85 272 550 62 89 166 240 230 336 153 226 174 247 253 247 46 0 65 -9
255 -124 91 -54 181 -108 200 -119 49 -27 300 -176 330 -196 14 -9 30 -18 35
-21 66 -32 238 -145 272 -179 24 -24 46 -41 49 -38 13 12 -18 85 -48 114 -29
28 -230 153 -453 283 -44 26 -174 102 -290 170 -115 68 -232 134 -260 147 -56
26 -132 29 -180 8z"/>
<path d="M47635 16206 c-60 -27 -82 -58 -661 -942 -64 -97 -77 -153 -50 -217
15 -36 68 -87 124 -117 20 -11 53 -30 72 -41 75 -45 592 -350 717 -423 72 -42
146 -81 165 -86 42 -13 99 -12 118 0 12 8 9 10 -11 10 -41 0 -79 18 -271 129
-18 10 -112 65 -208 122 -96 56 -204 119 -240 139 -385 218 -415 239 -426 296
-9 48 13 88 242 436 115 174 243 370 284 435 41 65 96 139 122 166 43 43 51
47 95 47 41 0 65 -10 163 -66 143 -83 195 -113 340 -199 63 -37 205 -119 315
-182 110 -63 214 -126 232 -139 47 -36 77 -83 83 -134 l6 -45 11 48 c24 104
-11 146 -226 274 -80 47 -200 119 -266 158 -248 148 -492 289 -550 316 -66 32
-130 37 -180 15z"/>
<path d="M46600 16180 c-9 -6 -10 -10 -3 -10 6 0 15 5 18 10 8 12 4 12 -15 0z"/>
<path d="M46555 16160 c-3 -5 -2 -10 4 -10 5 0 13 5 16 10 3 6 2 10 -4 10 -5
0 -13 -4 -16 -10z"/>
<path d="M49624 16115 c-10 -8 -38 -15 -61 -15 -24 0 -43 -4 -43 -10 0 -17 64
-11 98 10 17 11 32 22 32 25 0 8 -5 6 -26 -10z"/>
<path d="M56184 16045 c-10 -8 -14 -15 -8 -15 6 0 17 7 24 15 16 19 9 19 -16
0z"/>
<path d="M46314 15995 c11 -8 25 -15 30 -15 6 0 2 7 -8 15 -11 8 -25 15 -30
15 -6 0 -2 -7 8 -15z"/>
<path d="M56110 16000 c-8 -5 -10 -10 -5 -10 6 0 17 5 25 10 8 5 11 10 5 10
-5 0 -17 -5 -25 -10z"/>
<path d="M46390 15955 c0 -2 15 -12 33 -20 l32 -16 -25 20 c-24 20 -40 26 -40
16z"/>
<path d="M44859 15862 c-45 -30 -62 -52 -224 -302 -107 -165 -172 -264 -350
-535 -242 -368 -255 -392 -242 -471 12 -73 20 -79 557 -394 96 -56 195 -115
220 -130 133 -80 242 -142 281 -160 56 -25 119 -25 168 0 62 31 85 61 316 415
54 83 185 282 291 442 107 161 202 310 214 332 25 50 26 125 3 168 -23 40 -58
68 -168 133 -49 29 -139 83 -200 119 -60 36 -119 71 -130 77 -11 6 -131 76
-267 157 -135 80 -263 153 -283 162 -61 25 -134 20 -186 -13z m176 -50 c16 -8
79 -45 140 -82 60 -37 178 -107 260 -155 83 -48 166 -97 185 -109 19 -11 47
-28 61 -36 360 -208 389 -231 389 -317 0 -24 -7 -57 -15 -73 -34 -65 -729
-1097 -761 -1130 -31 -31 -40 -35 -87 -34 -57 0 -38 -9 -332 164 -99 59 -259
153 -355 210 -444 262 -440 259 -440 334 0 37 18 68 173 302 94 143 213 323
263 400 363 553 344 527 399 543 35 11 78 5 120 -17z"/>
<path d="M44430 14720 c-11 -8 -7 -9 15 -4 37 8 45 14 19 14 -10 0 -26 -5 -34
-10z"/>
<path d="M44490 14716 c0 -2 8 -10 18 -17 15 -13 16 -12 3 4 -13 16 -21 21
-21 13z"/>
<path d="M44585 14640 c-4 -6 7 -10 27 -10 25 0 29 3 18 10 -19 13 -37 13 -45
0z"/>
<path d="M44450 14595 c-25 -10 -29 -14 -14 -14 11 -1 29 6 40 14 23 17 19 17
-26 0z"/>
<path d="M44760 14580 c-12 -7 -12 -12 -3 -21 15 -15 26 -7 21 15 -2 11 -7 13
-18 6z"/>
<path d="M44533 14563 c-3 -10 -12 -25 -20 -34 -12 -15 -11 -16 10 -12 14 3
29 -2 36 -11 14 -17 49 -21 66 -8 6 4 17 16 25 27 13 17 11 17 -14 -3 -16 -12
-37 -22 -47 -22 -23 0 -53 44 -45 65 3 8 3 15 0 15 -2 0 -7 -8 -11 -17z"/>
<path d="M44787 14467 l-17 -32 20 24 c17 20 26 41 18 41 -2 0 -11 -15 -21
-33z"/>
<path d="M44880 14470 c-11 -7 -8 -9 15 -8 17 1 39 -2 50 -6 13 -5 11 -2 -5 8
-29 18 -40 19 -60 6z"/>
<path d="M45035 14390 c-3 -5 3 -10 14 -10 10 0 28 -3 38 -6 10 -3 7 2 -7 10
-30 18 -37 19 -45 6z"/>
<path d="M44917 14351 c-38 -25 -42 -31 -19 -24 12 3 28 14 38 24 21 23 17 23
-19 0z"/>
<path d="M51090 15541 c0 -6 8 -11 18 -11 9 0 37 -11 61 -25 59 -34 67 -31 11
4 -55 34 -90 47 -90 32z"/>
<path d="M43099 15513 c-13 -15 -12 -15 11 -3 34 17 36 20 18 20 -9 0 -22 -7
-29 -17z"/>
<path d="M52225 15461 c-62 -29 -54 -19 -323 -416 -430 -635 -430 -635 -416
-712 13 -71 57 -103 429 -321 33 -20 76 -45 95 -57 119 -75 521 -303 549 -313
42 -15 118 -16 126 -2 4 6 -7 10 -25 10 -32 0 -117 36 -180 76 -19 12 -136 81
-260 154 -730 431 -690 403 -690 481 0 43 7 59 73 156 80 118 330 484 469 686
48 71 88 132 88 136 0 10 51 56 77 70 32 16 109 13 146 -5 18 -9 142 -83 277
-164 135 -80 345 -206 467 -278 218 -131 279 -178 305 -240 l12 -27 4 34 c5
48 -4 76 -39 116 -40 46 -946 589 -1036 621 -53 18 -101 17 -148 -5z"/>
<path d="M43246 15425 c-22 -34 -20 -43 4 -17 12 12 28 22 38 22 15 0 15 2 2
10 -22 14 -26 13 -44 -15z"/>
<path d="M43051 15424 c0 -11 3 -14 6 -6 3 7 2 16 -1 19 -3 4 -6 -2 -5 -13z"/>
<path d="M43334 15407 c3 -9 1 -28 -4 -42 -5 -14 -7 -25 -5 -25 14 0 24 53 14
68 -10 16 -10 15 -5 -1z"/>
<path d="M43120 15390 c-21 -7 -21 -8 -5 -9 11 0 27 4 35 9 18 11 5 11 -30 0z"/>
<path d="M51044 15385 c36 -19 47 -19 22 0 -11 8 -27 15 -35 15 -9 0 -3 -7 13
-15z"/>
<path d="M43201 15357 c-13 -21 -12 -21 5 -5 10 10 16 20 13 22 -3 3 -11 -5
-18 -17z"/>
<path d="M54765 15370 c-3 -5 -1 -10 4 -10 6 0 11 5 11 10 0 6 -2 10 -4 10 -3
0 -8 -4 -11 -10z"/>
<path d="M55735 15361 c-51 -24 -72 -47 -182 -206 -357 -515 -551 -809 -563
-855 -14 -50 2 -109 40 -148 15 -16 105 -75 201 -131 96 -57 278 -165 404
-241 433 -257 459 -270 529 -254 29 6 27 8 -35 29 -72 24 -86 31 -384 205
-339 198 -430 252 -440 260 -5 4 -32 20 -60 36 -98 54 -184 114 -200 138 -20
30 -22 94 -5 127 16 30 131 200 253 376 51 73 155 223 232 334 77 111 158 222
180 247 36 40 46 45 93 50 32 3 64 -1 84 -9 34 -14 233 -128 278 -158 48 -34
50 -34 50 -4 0 28 -26 49 -135 109 -11 6 -38 21 -60 34 -144 85 -201 98 -280
61z"/>
<path d="M49103 15347 c-17 -6 -45 -24 -62 -39 -32 -29 -602 -879 -647 -966
-43 -82 -34 -156 26 -213 21 -21 86 -61 405 -251 606 -361 641 -379 720 -363
l40 8 -30 9 c-80 24 -101 33 -165 69 -38 21 -76 39 -85 39 -8 0 -15 4 -15 9 0
5 -19 20 -42 33 -24 14 -122 72 -218 130 -96 58 -256 153 -355 211 -212 125
-233 140 -252 184 -18 43 -5 93 40 160 18 26 82 120 142 208 60 88 173 257
251 375 236 356 226 345 319 345 58 0 66 -3 210 -89 83 -50 175 -106 205 -125
30 -19 104 -64 165 -99 472 -275 485 -283 515 -327 15 -22 31 -53 36 -70 l8
-30 4 34 c12 112 -14 137 -341 332 -149 89 -292 174 -317 189 -76 46 -281 165
-354 204 -76 42 -150 54 -203 33z"/>
<path d="M54710 15345 c-16 -9 -19 -14 -9 -15 8 0 24 7 35 15 24 18 7 19 -26
0z"/>
<path d="M43410 15339 c0 -5 5 -7 10 -4 6 3 10 8 10 11 0 2 -4 4 -10 4 -5 0
-10 -5 -10 -11z"/>
<path d="M54641 15314 c-18 -8 -31 -17 -29 -20 7 -7 68 17 68 27 0 5 -1 9 -2
8 -2 0 -18 -7 -37 -15z"/>
<path d="M43393 15308 c-15 -20 -25 -38 -20 -38 3 0 12 11 21 25 17 26 16 35
-1 13z"/>
<path d="M43494 15301 c-5 -3 -16 -15 -24 -26 -14 -19 -14 -19 5 -3 11 9 31
18 45 20 24 3 24 4 4 9 -12 4 -26 4 -30 0z"/>
<path d="M43355 15249 c-4 -6 -5 -12 -2 -15 2 -3 7 2 10 11 7 17 1 20 -8 4z"/>
<path d="M43566 15242 c-3 -5 8 -6 25 -4 16 2 29 6 29 8 0 8 -49 4 -54 -4z"/>
<path d="M43531 15196 c-8 -13 -11 -30 -8 -38 3 -8 6 -5 6 8 1 11 6 25 13 32
6 6 9 14 7 17 -3 3 -11 -6 -18 -19z"/>
<path d="M43575 15110 l-20 -9 20 0 c11 0 27 4 35 9 13 9 13 10 0 9 -8 0 -24
-4 -35 -9z"/>
<path d="M46351 15020 c-13 -6 -36 -19 -52 -31 -24 -17 -426 -609 -580 -854
-24 -38 -47 -74 -52 -80 -28 -33 -159 -246 -168 -273 -6 -19 -8 -53 -5 -77 13
-82 2 -75 666 -463 80 -46 210 -123 290 -170 80 -47 195 -115 255 -150 61 -36
126 -75 146 -87 70 -45 165 -67 197 -46 10 6 4 10 -21 15 -19 3 -105 47 -191
96 -87 50 -160 90 -163 90 -4 0 -14 6 -22 14 -9 7 -216 130 -461 273 -483 282
-577 339 -594 356 -31 31 -46 65 -46 101 0 49 25 89 370 601 37 55 142 214
234 353 180 274 197 292 277 292 37 0 61 -9 130 -51 46 -28 185 -109 309 -181
124 -72 344 -202 490 -288 146 -86 301 -177 345 -202 118 -68 163 -104 196
-156 27 -43 29 -44 29 -19 0 39 -23 88 -54 116 -26 24 -187 123 -521 319 -876
515 -850 501 -922 507 -32 3 -69 0 -82 -5z"/>
<path d="M40106 14917 c5 -14 44 -41 44 -31 0 6 -40 44 -46 44 -2 0 -1 -6 2
-13z"/>
<path d="M40080 14893 c1 -11 50 -46 50 -35 0 10 -33 42 -43 42 -4 0 -7 -3 -7
-7z"/>
<path d="M40114 14816 l-21 -24 48 -54 c34 -37 48 -48 49 -35 0 14 5 17 21 12
16 -5 20 -3 17 6 -3 8 -13 13 -23 11 -24 -5 -94 66 -76 77 7 5 12 13 10 19 -2
6 -13 0 -25 -12z"/>
<path d="M40158 14794 c6 -3 12 -12 12 -20 0 -8 5 -14 11 -14 19 0 4 35 -16
37 -11 2 -14 0 -7 -3z"/>
<path d="M40310 14727 c0 -23 -35 -48 -56 -40 -18 6 -18 6 -2 -10 22 -23 30
-22 61 11 30 31 35 52 12 52 -8 0 -15 -6 -15 -13z"/>
<path d="M52513 14653 c-7 -2 -13 -9 -13 -14 0 -6 5 -7 10 -4 6 4 32 7 57 7
32 0 42 3 32 9 -15 9 -66 11 -86 2z"/>
<path d="M40200 14630 c0 -5 5 -10 10 -10 6 0 10 5 10 10 0 6 -4 10 -10 10 -5
0 -10 -4 -10 -10z"/>
<path d="M52620 14636 c0 -2 7 -7 16 -10 8 -3 12 -2 9 4 -6 10 -25 14 -25 6z"/>
<path d="M53721 14609 c-64 -12 -102 -43 -164 -133 -31 -45 -115 -166 -187
-271 -72 -104 -197 -288 -277 -407 -137 -203 -147 -221 -151 -273 -3 -32 1
-68 8 -85 21 -52 22 -52 630 -410 96 -57 218 -128 270 -159 154 -92 206 -109
270 -91 l25 7 -30 8 c-44 12 -132 57 -295 153 -80 47 -170 100 -200 117 -30
18 -107 63 -170 100 -63 37 -165 96 -227 131 -207 118 -233 142 -233 213 0 30
10 54 43 103 176 258 257 376 367 533 69 99 154 223 189 275 35 52 75 104 89
114 53 40 141 31 222 -25 14 -9 41 -25 60 -36 19 -11 141 -83 270 -160 129
-77 280 -166 335 -198 199 -115 251 -150 292 -194 l43 -46 0 31 c0 36 -39 91
-89 124 -18 12 -151 92 -295 177 -143 86 -319 191 -391 233 -153 91 -300 167
-335 173 -14 2 -45 1 -69 -4z"/>
<path d="M40253 14586 c-28 -13 -28 -14 2 -48 16 -19 30 -26 42 -22 15 5 15 4
3 -5 -16 -11 -16 -12 31 -72 15 -19 119 -158 232 -310 233 -315 298 -386 135
-150 -38 54 -45 71 -30 71 11 0 122 -108 122 -120 0 -5 6 -10 14 -10 8 0 18
-9 21 -20 7 -21 25 -28 25 -10 0 19 -32 60 -46 60 -8 0 -19 12 -25 27 -8 22
-202 270 -256 328 -10 11 -64 76 -119 145 -119 147 -121 150 -151 136z m177
-216 c0 -5 -5 -10 -11 -10 -5 0 -7 5 -4 10 3 6 8 10 11 10 2 0 4 -4 4 -10z
m70 -90 c0 -5 -4 -10 -10 -10 -5 0 -10 5 -10 10 0 6 5 10 10 10 6 0 10 -4 10
-10z m80 -98 c0 -5 18 -28 40 -52 38 -41 51 -70 31 -70 -11 0 -71 70 -71 83 0
6 -7 19 -17 29 -15 17 -15 18 0 18 10 0 17 -4 17 -8z"/>
<path d="M49408 14559 c-31 -8 -77 -40 -78 -53 0 -5 8 -2 18 7 22 20 101 38
132 30 15 -4 21 -2 17 4 -9 14 -57 21 -89 12z"/>
<path d="M49537 14510 c10 -11 19 -20 21 -20 1 0 -2 9 -8 20 -6 11 -15 20 -20
20 -6 0 -2 -9 7 -20z"/>
<path d="M50545 14481 c-66 -31 -49 -7 -474 -644 -128 -191 -239 -364 -248
-384 -18 -43 -11 -104 16 -149 20 -33 49 -52 386 -251 458 -270 586 -345 637
-368 60 -28 134 -33 164 -10 18 13 16 14 -21 15 -45 0 -184 72 -485 250 -288
169 -364 214 -403 235 -117 63 -220 132 -233 157 -8 15 -14 46 -14 69 0 39 25
81 307 503 169 254 320 476 337 494 55 59 130 62 219 9 152 -91 530 -311 717
-418 228 -131 266 -160 301 -234 l19 -40 -3 52 c-8 107 9 94 -602 453 -143 84
-285 167 -315 185 -156 92 -230 111 -305 76z"/>
<path d="M52573 14359 c-6 -6 -35 -14 -64 -19 l-54 -8 50 -1 c36 0 57 5 75 19
14 11 20 20 15 20 -6 0 -16 -5 -22 -11z"/>
<path d="M49280 14286 c0 -2 8 -10 18 -17 15 -13 16 -12 3 4 -13 16 -21 21
-21 13z"/>
<path d="M56070 14280 c-13 -8 -13 -10 2 -10 9 0 20 5 23 10 8 13 -5 13 -25 0z"/>
<path d="M55986 14258 c7 -11 54 -10 54 1 0 5 -13 9 -30 9 -16 -1 -27 -5 -24
-10z"/>
<path d="M49320 14251 c0 -14 83 -32 94 -21 7 7 0 10 -16 10 -15 0 -38 4 -52
10 -14 5 -26 6 -26 1z"/>
<path d="M47376 14025 c4 -8 12 -15 20 -15 8 0 11 6 8 15 -4 8 -12 15 -20 15
-8 0 -11 -6 -8 -15z"/>
<path d="M47470 13975 c0 -8 7 -15 15 -15 9 0 12 6 9 15 -4 8 -10 15 -15 15
-5 0 -9 -7 -9 -15z"/>
<path d="M47268 13961 c18 -5 38 -15 45 -24 7 -8 23 -17 37 -20 14 -4 35 -15
46 -25 11 -11 31 -23 45 -27 24 -8 24 -8 5 14 -11 11 -24 21 -31 21 -6 0 -32
14 -58 31 -25 16 -63 32 -84 34 -38 5 -38 5 -5 -4z"/>
<path d="M48172 13948 c-70 -24 -63 -14 -676 -941 -87 -131 -164 -253 -172
-272 -30 -72 -9 -155 50 -199 17 -13 153 -95 301 -181 428 -250 821 -480 1075
-630 129 -76 289 -170 355 -208 66 -39 174 -102 240 -142 66 -39 165 -98 220
-130 55 -32 192 -113 305 -180 113 -67 324 -191 470 -277 382 -224 829 -486
1020 -598 303 -178 823 -483 965 -565 77 -45 208 -121 290 -170 243 -143 718
-421 880 -515 83 -48 260 -151 395 -230 265 -155 299 -168 370 -137 l35 15
-35 1 c-50 2 -105 30 -427 219 -418 246 -827 483 -908 527 -38 21 -135 77
-215 125 -230 138 -314 187 -485 285 -88 51 -207 120 -265 155 -58 35 -119 71
-135 80 -43 24 -242 140 -420 245 -140 82 -218 128 -420 245 -44 26 -174 102
-290 170 -115 68 -246 145 -290 170 -44 26 -235 138 -425 250 -290 171 -807
474 -1125 660 -44 26 -156 92 -250 147 -93 55 -213 125 -265 155 -52 30 -212
124 -355 207 -143 84 -303 178 -355 209 -272 159 -275 162 -268 240 4 43 30
86 243 401 130 195 299 447 375 560 75 113 150 218 165 233 56 56 126 50 244
-22 45 -28 84 -50 86 -50 2 0 59 -33 127 -74 68 -40 229 -135 358 -211 129
-76 271 -159 315 -185 44 -26 134 -79 200 -117 66 -39 226 -132 355 -208 251
-147 289 -170 445 -260 55 -32 143 -83 195 -115 52 -31 149 -88 215 -125 66
-38 147 -85 180 -105 33 -21 170 -102 305 -180 135 -79 256 -150 270 -160 14
-9 50 -30 80 -47 30 -16 116 -66 190 -110 74 -44 178 -105 230 -135 146 -85
529 -311 688 -407 79 -47 155 -93 170 -101 84 -47 466 -268 517 -300 33 -20
92 -55 130 -77 39 -22 171 -100 295 -173 124 -73 353 -208 510 -300 157 -92
337 -198 400 -235 63 -38 180 -106 260 -152 165 -96 172 -101 212 -163 l30
-45 -6 39 c-8 58 -51 104 -157 167 -210 125 -815 483 -834 493 -11 6 -69 41
-130 77 -60 36 -166 98 -235 139 -69 40 -137 81 -152 91 -15 11 -30 19 -33 19
-3 0 -34 17 -68 39 -34 21 -145 87 -247 147 -102 59 -266 156 -365 215 -99 58
-232 136 -295 173 -63 37 -122 71 -130 76 -8 5 -60 36 -115 68 -55 32 -154 90
-220 129 -66 39 -174 102 -240 140 -108 62 -394 230 -875 513 -91 53 -259 152
-375 220 -115 67 -257 150 -315 185 -172 102 -433 257 -465 275 -16 9 -120 70
-230 135 -110 65 -252 148 -315 185 -106 62 -352 207 -775 457 -93 55 -194
113 -223 128 -60 31 -129 40 -180 23z"/>
<path d="M40880 13826 c-11 -31 -36 -44 -53 -27 -6 6 -17 11 -25 11 -18 0 11
-49 57 -99 19 -20 53 -63 76 -97 22 -33 61 -84 85 -113 25 -29 61 -72 80 -95
19 -23 42 -40 50 -38 19 3 62 -42 130 -138 29 -41 74 -98 99 -125 70 -77 101
-114 101 -122 0 -3 8 -16 18 -27 17 -21 17 -21 -6 -2 -32 27 -40 11 -11 -22
14 -15 37 -43 51 -62 14 -19 49 -60 78 -90 29 -30 105 -116 169 -190 63 -74
125 -145 136 -157 11 -11 54 -61 95 -109 41 -48 112 -126 158 -173 45 -47 82
-87 82 -91 0 -3 36 -41 79 -85 44 -44 77 -83 75 -87 -2 -4 11 -19 31 -35 19
-15 35 -34 35 -40 0 -7 6 -13 13 -13 8 0 20 -12 28 -27 8 -16 23 -37 33 -48
10 -11 16 -14 12 -7 -4 6 -5 12 -2 12 3 0 10 -10 17 -21 9 -17 8 -20 -2 -14
-8 6 -10 4 -5 -4 5 -7 19 -16 32 -21 13 -5 24 -17 24 -25 0 -20 29 -65 42 -65
6 0 5 8 -3 18 -7 9 6 -1 29 -23 39 -37 58 -68 29 -49 -7 5 -5 2 5 -8 10 -9 18
-21 18 -27 0 -6 6 -8 14 -5 14 6 90 -76 91 -99 2 -19 16 -47 26 -47 4 0 6 8 3
18 -7 21 61 -52 164 -176 43 -52 76 -100 74 -110 -2 -11 0 -13 5 -5 6 8 49
-36 130 -130 68 -78 157 -178 199 -222 42 -44 103 -111 137 -150 33 -38 95
-108 137 -155 84 -93 206 -233 451 -522 88 -104 234 -274 324 -378 91 -105
165 -195 165 -201 0 -5 -7 -9 -15 -9 -8 0 -15 -3 -15 -8 0 -17 52 -82 65 -82
8 0 15 -4 15 -9 0 -6 30 -40 66 -78 36 -37 87 -93 112 -123 26 -30 49 -57 52
-60 8 -7 123 -140 151 -174 60 -74 102 -115 110 -110 5 3 14 2 20 -2 8 -4 7
-9 -2 -15 -10 -6 -3 -19 27 -52 21 -25 44 -43 51 -41 7 2 15 -1 18 -6 4 -6 1
-10 -5 -10 -6 0 -8 -5 -5 -10 4 -6 13 -9 21 -8 16 3 174 -168 174 -188 0 -8 6
-13 13 -12 6 2 12 -5 12 -14 0 -22 25 -49 25 -27 1 8 10 3 24 -15 14 -16 22
-36 19 -45 -4 -12 -2 -13 4 -3 7 9 16 5 36 -18 15 -16 27 -34 27 -40 0 -5 5
-10 11 -10 5 0 7 -5 3 -12 -4 -6 -3 -8 4 -4 6 3 26 -13 46 -36 27 -31 33 -44
24 -50 -7 -4 -11 -8 -8 -9 3 0 14 -2 24 -4 23 -4 47 -27 49 -46 4 -22 18 -40
27 -34 11 7 32 -30 23 -39 -3 -3 1 -6 10 -6 10 0 17 -4 17 -8 0 -5 10 -19 23
-32 12 -14 21 -26 19 -28 -2 -2 34 -45 79 -95 124 -139 193 -217 241 -273 23
-28 133 -152 242 -275 213 -240 945 -979 970 -979 8 0 89 -66 180 -146 161
-143 228 -189 254 -179 19 7 5 25 -20 25 -24 0 -46 18 -205 167 -67 63 -144
132 -172 154 -49 39 -55 49 -51 78 1 7 -32 48 -72 90 -68 70 -134 147 -229
271 -20 26 -71 89 -112 140 -42 51 -78 102 -80 112 -7 25 -8 26 172 -151 178
-174 309 -314 387 -413 68 -86 370 -396 399 -409 11 -5 28 -14 37 -21 23 -17
32 -5 18 22 -7 12 -77 96 -156 186 -79 89 -144 167 -144 172 0 5 -7 16 -17 23
-9 8 -116 124 -237 259 -121 135 -238 263 -259 285 -21 22 -45 54 -53 72 -7
17 -22 34 -32 37 -11 4 -68 61 -128 129 -60 67 -111 124 -114 127 -3 3 -48 52
-100 110 -52 58 -99 110 -105 116 -5 6 -39 44 -75 85 -90 102 -146 164 -211
234 -31 33 -72 78 -91 100 -19 22 -133 150 -254 285 -200 223 -286 320 -438
494 -28 33 -60 69 -71 80 -12 12 -54 59 -95 106 -40 47 -99 112 -129 145 -49
53 -243 270 -294 329 -15 17 -20 18 -27 6 -12 -19 -12 -24 1 -54 8 -16 17 -22
27 -18 12 4 14 1 9 -12 -5 -13 -1 -19 12 -23 11 -3 26 -19 35 -36 9 -18 16
-28 16 -23 0 5 11 -3 25 -18 13 -14 28 -26 32 -26 5 1 9 -8 11 -19 2 -11 12
-23 23 -26 10 -4 19 -11 19 -16 0 -5 21 -32 48 -58 41 -43 83 -92 101 -119 3
-5 14 -12 24 -15 10 -4 17 -12 15 -18 -2 -6 25 -39 59 -72 35 -34 63 -68 63
-75 0 -6 3 -11 8 -11 26 4 32 -2 22 -22 -10 -17 -8 -21 9 -26 12 -3 21 -10 21
-15 0 -5 4 -7 9 -4 5 3 14 -8 21 -24 7 -16 15 -28 19 -26 12 8 68 -49 63 -64
-3 -8 -1 -12 3 -8 7 6 55 -38 55 -51 0 -15 101 -111 111 -106 6 4 9 1 8 -6 -1
-8 1 -22 6 -32 6 -15 10 -16 16 -5 6 9 9 3 9 -17 0 -20 3 -26 9 -17 6 10 10
10 21 -3 10 -12 10 -15 -1 -15 -19 -1 32 -39 51 -40 12 0 12 -2 2 -9 -11 -6
-8 -13 12 -29 14 -11 26 -25 26 -30 0 -10 57 -72 66 -72 9 0 42 -39 37 -44 -3
-3 9 -12 27 -20 18 -7 27 -15 21 -17 -7 -3 14 -32 48 -68 34 -34 61 -66 61
-70 0 -4 11 -14 25 -21 14 -7 25 -18 25 -23 0 -5 10 -19 23 -31 13 -12 22 -26
20 -32 -2 -5 7 -16 19 -24 40 -27 158 -174 158 -197 0 -8 4 -12 9 -9 16 10 41
-6 41 -26 0 -10 5 -16 10 -13 6 3 10 0 10 -7 1 -16 46 -68 60 -68 5 0 10 -5
10 -11 0 -5 4 -8 9 -5 4 3 6 -6 3 -19 -2 -14 -9 -25 -14 -25 -10 0 -49 44 -49
54 0 3 -12 18 -27 34 -15 16 -67 73 -117 127 -177 192 -193 211 -242 262 -27
28 -66 71 -88 95 -21 23 -65 72 -98 108 -123 134 -143 157 -192 215 -27 32
-65 74 -82 92 -18 19 -33 35 -33 38 0 2 -21 24 -47 50 -27 25 -48 49 -48 53
-1 4 -34 42 -75 84 -41 42 -104 112 -140 154 -75 90 -123 144 -165 188 -60 63
-130 150 -128 158 2 4 -3 8 -10 9 -6 0 -30 23 -52 50 -22 27 -53 65 -70 83
-16 18 -40 45 -52 59 -27 31 -36 33 -58 11 -15 -15 -15 -18 1 -35 10 -11 14
-22 11 -25 -4 -4 -14 3 -24 15 -16 19 -21 20 -56 9 -24 -7 -36 -16 -33 -25 6
-15 -20 -18 -29 -2 -11 17 50 67 132 105 43 21 79 38 80 38 1 1 4 13 8 29 6
22 4 26 -8 21 -10 -3 -20 3 -27 16 -9 18 -8 26 7 43 10 12 23 25 28 29 6 5 6
8 -2 8 -6 0 -21 -12 -32 -26 -14 -17 -26 -24 -38 -20 -22 8 -73 52 -73 63 0 4
-23 32 -50 61 -27 29 -68 76 -92 105 -24 29 -57 68 -74 87 -17 19 -73 82 -124
140 -51 58 -138 156 -193 217 -55 62 -107 123 -115 135 -9 13 -23 30 -31 38
-9 8 -59 65 -111 125 -135 157 -152 175 -162 175 -20 0 -4 -25 42 -69 28 -26
50 -52 50 -59 0 -7 5 -12 10 -12 6 0 10 -6 10 -13 0 -8 11 -20 25 -27 14 -7
25 -18 25 -24 0 -6 32 -45 70 -86 38 -41 70 -78 70 -82 0 -4 25 -31 55 -60 30
-28 55 -60 55 -70 0 -11 5 -15 14 -12 12 5 30 -28 27 -50 -1 -5 6 -6 15 -2 12
4 15 2 10 -9 -3 -9 0 -15 8 -15 8 0 21 -12 31 -26 9 -14 34 -44 56 -66 21 -22
39 -47 39 -54 0 -8 4 -14 8 -14 4 0 16 -14 26 -30 9 -17 21 -28 25 -26 9 6 34
-22 44 -47 3 -9 13 -17 22 -17 8 0 15 -7 15 -16 0 -10 15 -31 33 -49 18 -18
31 -37 29 -43 -2 -6 6 -13 17 -17 12 -3 21 -15 21 -25 0 -11 8 -20 22 -22 12
-2 22 -11 24 -22 1 -10 8 -22 14 -26 6 -4 8 -14 4 -23 -3 -10 -1 -17 6 -17 6
0 8 5 5 10 -11 17 10 11 33 -10 26 -24 28 -40 7 -40 -9 0 -18 -7 -21 -15 -4
-8 -15 -15 -25 -15 -10 0 -19 -4 -19 -10 0 -5 12 -10 26 -10 41 0 26 -32 -29
-59 -47 -23 -78 -21 -44 3 24 18 21 36 -11 72 -15 17 -46 53 -69 80 -23 27
-53 63 -68 79 -42 48 -58 74 -52 89 4 9 0 12 -12 9 -20 -5 -56 31 -46 47 4 6
16 8 28 4 19 -6 20 -5 8 10 -7 9 -27 16 -43 16 -22 0 -41 12 -78 52 -27 28
-47 56 -44 60 3 5 1 7 -3 6 -5 -2 -28 17 -50 42 -164 182 -462 523 -643 735
-52 61 -114 133 -140 160 -25 28 -68 77 -97 110 -68 80 -138 161 -253 292 -52
59 -171 196 -264 303 -300 345 -370 424 -417 475 -26 28 -66 73 -89 100 -24
28 -46 52 -49 55 -3 3 -33 37 -66 75 -33 39 -65 75 -71 80 -19 17 -224 254
-326 375 -52 63 -114 135 -137 160 -22 25 -41 49 -41 53 0 5 -16 24 -36 42
-22 21 -33 39 -28 46 4 7 3 9 -3 6 -6 -4 -36 24 -68 61 -70 80 -92 110 -50 67
52 -52 74 -65 44 -25 -54 73 -79 113 -79 130 0 9 -10 26 -22 37 -39 35 -88 90
-88 97 0 3 -25 32 -55 63 -30 31 -55 62 -55 69 0 6 -6 14 -14 17 -8 3 -40 38
-72 78 -32 40 -65 81 -74 90 -8 9 -37 45 -65 79 -27 35 -65 81 -82 102 l-33
40 -10 -26z m20 -36 c0 -5 -4 -10 -10 -10 -5 0 -10 5 -10 10 0 6 5 10 10 10 6
0 10 -4 10 -10z m306 -370 c194 -241 222 -278 200 -260 -25 20 -350 410 -365
438 -30 56 23 -1 165 -178z m429 -617 l38 -48 -41 40 c-36 33 -51 55 -39 55 1
0 20 -21 42 -47z m367 -427 c10 -19 8 -18 -16 3 -14 14 -26 29 -26 34 0 13 29
-12 42 -37z m2949 -3258 c90 -101 132 -150 144 -166 6 -8 30 -37 55 -66 68
-77 97 -114 74 -91 -37 35 -156 168 -287 319 -10 12 -29 33 -43 49 -13 15 -20
27 -16 27 5 0 37 -32 73 -72z m389 -450 c0 -6 -7 -5 -15 2 -8 7 -15 17 -15 22
0 6 7 5 15 -2 8 -7 15 -17 15 -22z m154 -164 c7 -19 2 -18 -19 6 -16 17 -16
20 -3 15 9 -4 19 -13 22 -21z m1234 -1214 c11 0 17 -20 13 -42 0 -5 5 -8 13
-8 8 0 18 -9 21 -21 6 -17 9 -18 23 -7 13 11 15 11 10 -4 -5 -11 0 -18 17 -22
17 -4 22 -11 18 -26 -4 -15 0 -20 15 -20 16 0 19 -5 14 -22 -3 -14 -2 -19 6
-14 7 4 12 3 12 -3 0 -29 -26 -15 -87 46 -82 81 -143 152 -143 163 0 5 -5 10
-11 12 -6 2 -7 11 -3 22 6 17 11 15 39 -18 17 -20 36 -36 43 -36z"/>
<path d="M45940 13826 c0 -2 13 -6 29 -8 17 -2 28 -1 25 4 -5 8 -54 12 -54 4z"/>
<path d="M47440 13780 c-13 -8 -13 -10 2 -10 9 0 20 5 23 10 8 13 -5 13 -25 0z"/>
<path d="M41267 13754 c7 -3 9 -12 6 -20 -5 -14 8 -19 20 -7 9 8 -12 33 -27
32 -7 0 -7 -2 1 -5z"/>
<path d="M46060 13750 c-11 -8 -8 -9 12 -4 14 3 37 0 50 -7 21 -11 22 -11 9 4
-15 19 -48 22 -71 7z"/>
<path d="M55157 13747 c-60 -19 -99 -58 -188 -187 -46 -67 -127 -183 -179
-258 -269 -386 -382 -556 -396 -595 -28 -78 2 -152 83 -204 49 -31 290 -175
418 -250 39 -23 126 -74 195 -115 335 -199 357 -210 419 -215 38 -4 61 -2 65
6 5 7 -3 11 -21 11 -15 0 -64 20 -109 44 -74 40 -732 429 -814 481 -19 12 -63
39 -97 60 -87 52 -108 78 -107 128 1 51 9 65 205 342 81 116 217 309 301 429
84 120 170 232 190 248 27 23 47 30 80 30 54 1 76 -10 448 -233 338 -203 551
-329 556 -329 2 0 4 15 4 33 -1 31 -6 35 -246 177 -136 80 -317 187 -403 238
-280 166 -326 184 -404 159z"/>
<path d="M53865 13680 c-3 -5 3 -10 15 -10 12 0 18 5 15 10 -3 6 -10 10 -15
10 -5 0 -12 -4 -15 -10z"/>
<path d="M46195 13653 c-18 -28 -18 -28 2 -10 27 23 70 22 83 -3 6 -11 9 -24
6 -28 -2 -4 16 -7 41 -7 38 -1 42 1 27 12 -10 7 -24 13 -32 13 -8 0 -27 11
-44 25 -38 32 -61 32 -83 -2z"/>
<path d="M46085 13629 c-29 -13 -34 -19 -19 -19 12 0 32 9 45 20 29 24 25 24
-26 -1z"/>
<path d="M52007 13625 c-22 -7 -50 -24 -63 -36 -26 -25 -33 -35 -193 -270 -57
-85 -137 -201 -176 -259 -338 -495 -336 -491 -300 -577 27 -65 -5 -43 550
-371 314 -185 488 -282 524 -292 46 -13 98 -13 106 0 3 6 -2 10 -12 10 -32 0
-134 54 -413 222 -151 90 -331 197 -400 238 -304 179 -315 187 -315 254 0 45
26 88 254 416 43 63 129 189 190 280 226 338 237 350 320 350 44 0 96 -24 221
-100 45 -27 357 -212 545 -322 55 -32 107 -63 115 -68 8 -6 22 -13 30 -17 45
-19 154 -100 189 -139 21 -25 41 -41 44 -37 9 15 -21 85 -49 114 -25 26 -280
183 -549 338 -49 29 -144 84 -210 123 -280 164 -316 176 -408 143z"/>
<path d="M50975 13595 c-16 -13 -27 -26 -25 -29 3 -2 21 9 40 25 19 16 30 29
25 29 -6 -1 -23 -12 -40 -25z"/>
<path d="M54035 13590 c3 -5 14 -10 23 -10 15 0 15 2 2 10 -20 13 -33 13 -25
0z"/>
<path d="M46440 13535 c-10 -12 -6 -13 24 -8 31 5 37 2 47 -20 10 -22 8 -31
-11 -59 l-22 -33 29 33 c34 37 66 41 87 10 11 -16 16 -18 16 -7 0 20 -20 39
-41 39 -9 0 -33 14 -54 30 -42 34 -57 37 -75 15z"/>
<path d="M50875 13515 c-39 -32 -29 -32 15 0 19 14 30 25 24 25 -5 -1 -22 -12
-39 -25z"/>
<path d="M50810 13470 c-8 -5 -23 -7 -32 -4 -20 6 -21 3 -12 -20 5 -13 10 -13
27 -4 26 13 52 38 40 38 -4 0 -15 -5 -23 -10z"/>
<path d="M46646 13379 c-14 -17 -26 -38 -26 -47 0 -9 8 -1 18 18 33 66 112 60
112 -9 l0 -25 16 22 c9 13 14 24 13 26 -2 1 -17 12 -33 24 -40 30 -69 28 -100
-9z"/>
<path d="M46826 13314 c-9 -24 -8 -26 15 -14 11 7 28 9 37 5 11 -4 13 -3 7 3
-21 20 -52 23 -59 6z"/>
<path d="M46685 13271 c-25 -5 -27 -8 -12 -14 27 -10 34 -9 41 8 3 8 4 14 3
14 -1 -1 -15 -4 -32 -8z"/>
<path d="M46976 13221 c-3 -4 5 -6 18 -4 30 6 66 -13 66 -34 0 -13 3 -14 12
-5 8 8 5 16 -13 31 -24 21 -74 28 -83 12z"/>
<path d="M41460 13175 c0 -5 21 -27 58 -59 34 -30 26 0 -9 34 -29 27 -49 38
-49 25z"/>
<path d="M46980 13080 c19 -13 30 -13 30 0 0 6 -10 10 -22 10 -19 0 -20 -2 -8
-10z"/>
<path d="M41630 13005 c0 -9 62 -75 72 -75 5 0 -6 18 -23 40 -28 35 -49 50
-49 35z"/>
<path d="M41727 12891 c41 -43 115 -130 140 -163 12 -16 46 -57 76 -91 46 -52
136 -158 242 -286 11 -13 40 -47 65 -76 25 -28 83 -96 128 -151 46 -54 110
-128 142 -164 32 -36 97 -112 146 -170 48 -58 108 -128 133 -155 78 -86 164
-186 209 -243 23 -31 49 -60 56 -66 12 -10 131 -145 301 -341 90 -104 164
-179 170 -173 3 2 -12 23 -33 45 -76 83 -142 160 -184 214 -24 31 -71 87 -105
125 -34 38 -146 168 -249 289 -103 121 -201 236 -218 255 -17 19 -72 82 -121
139 -50 57 -128 147 -175 201 -47 54 -127 147 -179 206 -52 60 -99 114 -105
119 -6 6 -34 37 -61 70 -28 33 -53 62 -56 65 -3 3 -46 52 -94 110 -49 58 -95
112 -104 121 -9 8 -34 37 -56 64 -48 58 -76 85 -87 85 -5 0 4 -13 19 -29z"/>
<path d="M52354 12846 c11 -9 24 -16 30 -16 12 0 7 5 -24 19 -24 11 -24 11 -6
-3z"/>
<path d="M41910 12816 c0 -2 7 -9 15 -16 9 -7 15 -8 15 -2 0 5 -7 12 -15 16
-8 3 -15 4 -15 2z"/>
<path d="M53462 12779 c-47 -14 -104 -75 -195 -209 -43 -63 -121 -176 -172
-250 -188 -269 -331 -481 -358 -531 -56 -97 -31 -185 69 -249 30 -19 69 -44
87 -55 18 -12 75 -45 127 -75 52 -30 149 -86 215 -125 274 -163 522 -304 557
-315 21 -6 48 -10 60 -8 22 4 21 5 -7 17 -56 23 -125 61 -324 181 -110 65
-221 130 -247 145 -27 14 -86 49 -131 78 -45 29 -141 88 -213 132 -153 93
-180 120 -180 176 0 49 24 97 98 198 31 43 80 111 109 152 29 41 87 124 130
184 44 61 128 181 187 268 155 226 177 245 272 234 36 -4 100 -38 316 -168
148 -90 291 -176 317 -191 348 -199 412 -243 450 -304 27 -41 30 -43 36 -24
10 32 -21 105 -60 139 -29 25 -161 108 -290 181 -48 27 -251 148 -355 210
-178 107 -331 193 -368 206 -43 15 -84 16 -130 3z"/>
<path d="M41980 12746 c0 -25 25 -53 34 -38 6 11 -15 62 -26 62 -5 0 -8 -11
-8 -24z"/>
<path d="M52214 12718 c-10 -13 -12 -17 -4 -10 8 6 22 12 33 12 10 0 15 5 12
10 -9 15 -20 12 -41 -12z"/>
<path d="M52295 12697 c11 -5 23 -15 26 -20 4 -6 16 -1 28 10 l21 20 -47 1
c-39 0 -44 -2 -28 -11z"/>
<path d="M42030 12665 c0 -8 7 -15 16 -15 14 0 14 3 4 15 -7 8 -14 15 -16 15
-2 0 -4 -7 -4 -15z"/>
<path d="M52183 12555 c27 -20 88 -29 101 -14 8 9 5 10 -14 6 -14 -3 -43 1
-65 8 -33 11 -37 12 -22 0z"/>
<path d="M56140 12310 c-35 -52 -80 -118 -100 -146 -197 -286 -210 -308 -210
-365 0 -75 34 -115 157 -189 59 -36 117 -70 128 -76 11 -6 37 -21 58 -33 l37
-23 0 31 c0 28 -7 35 -76 73 -224 127 -264 166 -250 241 6 31 140 233 281 425
42 56 46 67 43 110 l-3 47 -65 -95z"/>
<path d="M42468 12180 c12 -12 22 -27 22 -35 0 -8 7 -15 15 -15 9 0 21 -11 27
-25 11 -24 28 -34 28 -17 0 13 -91 112 -103 112 -6 0 -1 -9 11 -20z"/>
<path d="M42570 12065 c0 -4 11 -18 25 -31 14 -13 25 -20 25 -15 0 4 -11 18
-25 31 -14 13 -25 20 -25 15z"/>
<path d="M53713 11998 c-31 -35 -39 -55 -12 -32 13 12 30 19 37 17 7 -3 12 4
12 16 0 27 -12 27 -37 -1z"/>
<path d="M54917 11926 c-74 -20 -101 -52 -319 -371 -15 -22 -54 -78 -87 -125
-32 -47 -125 -183 -207 -303 -142 -209 -148 -220 -152 -275 -6 -96 18 -120
280 -272 61 -36 159 -93 217 -127 57 -35 106 -63 107 -63 1 0 69 -40 151 -89
82 -48 183 -107 224 -129 70 -39 154 -66 171 -56 4 3 -35 27 -87 54 -51 27
-172 96 -267 153 -183 110 -457 271 -596 352 -145 84 -179 131 -150 210 14 40
27 59 241 362 66 93 179 257 254 365 160 235 193 268 261 268 53 0 67 -6 257
-119 178 -106 440 -260 623 -367 146 -85 226 -146 250 -189 15 -29 25 -12 17
31 -11 62 -73 112 -330 264 -769 457 -759 452 -858 426z"/>
<path d="M42820 11776 c0 -4 11 -21 25 -38 14 -16 25 -26 25 -21 0 11 -49 70
-50 59z"/>
<path d="M53778 11713 c-28 -4 -34 -17 -20 -41 7 -10 12 -8 24 5 15 18 32 44
26 42 -2 -1 -15 -4 -30 -6z"/>
<path d="M42880 11700 c0 -5 5 -10 11 -10 5 0 7 5 4 10 -3 6 -8 10 -11 10 -2
0 -4 -4 -4 -10z"/>
<path d="M42900 11670 c0 -5 10 -15 23 -21 22 -12 22 -12 3 10 -21 23 -26 26
-26 11z"/>
<path d="M42950 11615 c7 -9 15 -13 17 -11 7 7 -7 26 -19 26 -6 0 -6 -6 2 -15z"/>
<path d="M42986 11575 c4 -8 11 -15 16 -15 6 0 5 6 -2 15 -7 8 -14 15 -16 15
-2 0 -1 -7 2 -15z"/>
<path d="M42675 11560 c3 -5 11 -10 16 -10 6 0 7 5 4 10 -3 6 -11 10 -16 10
-6 0 -7 -4 -4 -10z"/>
<path d="M43020 11535 c0 -2 15 -20 34 -39 18 -20 46 -49 60 -67 15 -17 29
-29 31 -27 3 3 -7 19 -23 36 -15 17 -40 47 -56 66 -26 32 -46 45 -46 31z"/>
<path d="M42788 11434 c13 -24 40 -49 47 -43 2 3 -10 18 -27 34 -23 22 -28 24
-20 9z"/>
<path d="M43167 11360 c5 -20 15 -25 26 -13 8 7 -11 33 -23 33 -5 0 -6 -9 -3
-20z"/>
<path d="M43200 11325 c0 -2 20 -25 45 -51 25 -25 45 -50 45 -55 0 -4 10 -13
21 -20 20 -10 21 -10 8 8 -46 65 -119 137 -119 118z"/>
<path d="M42900 11302 c0 -12 19 -26 26 -19 2 2 -2 10 -11 17 -9 8 -15 8 -15
2z"/>
<path d="M43335 11171 c-3 -5 -1 -12 5 -16 5 -3 10 1 10 9 0 18 -6 21 -15 7z"/>
<path d="M55174 11148 c-17 -20 -18 -21 -1 -15 12 4 20 1 24 -10 5 -14 8 -13
15 6 15 42 -8 54 -38 19z"/>
<path d="M43360 11145 c0 -8 4 -15 10 -15 5 0 7 7 4 15 -4 8 -8 15 -10 15 -2
0 -4 -7 -4 -15z"/>
<path d="M43387 11100 c3 -11 9 -17 14 -14 5 3 9 0 9 -5 0 -6 7 -11 15 -11 8
0 15 -5 15 -11 0 -6 25 -38 55 -72 30 -33 55 -65 55 -71 0 -7 12 -23 28 -37
41 -40 111 -117 108 -121 -2 -1 28 -34 66 -73 76 -78 94 -78 22 0 -25 28 -67
75 -92 105 -26 30 -52 60 -58 65 -6 6 -51 57 -99 115 -81 97 -131 150 -140
150 -2 0 -1 -9 2 -20z"/>
<path d="M55372 11047 c-8 -9 -6 -16 8 -24 15 -10 19 -9 24 3 3 9 6 20 6 25 0
13 -26 11 -38 -4z"/>
<path d="M55325 11010 c-3 -5 -1 -10 4 -10 6 0 11 5 11 10 0 6 -2 10 -4 10 -3
0 -8 -4 -11 -10z"/>
<path d="M43220 10935 c14 -16 26 -32 28 -34 1 -2 4 -2 7 1 3 2 -10 18 -28 34
l-32 29 25 -30z"/>
<path d="M56189 10914 c-9 -11 -36 -48 -59 -84 -24 -36 -49 -70 -54 -76 -6 -7
-38 -51 -71 -100 -33 -48 -95 -137 -137 -198 -242 -348 -271 -396 -276 -446
-6 -68 22 -114 108 -173 38 -26 71 -47 75 -47 3 0 26 -13 50 -30 24 -16 46
-30 48 -30 3 0 74 -41 157 -91 184 -109 180 -108 180 -77 0 16 -10 29 -32 42
-302 173 -471 277 -505 309 -44 41 -51 84 -24 139 12 24 83 129 158 233 75
105 196 277 270 382 120 173 134 196 131 229 -3 35 -4 35 -19 18z"/>
<path d="M43266 10879 c8 -14 110 -136 173 -209 27 -30 66 -76 87 -102 22 -26
42 -47 46 -47 11 -1 -56 83 -157 198 -49 56 -101 117 -115 136 -23 31 -51 50
-34 24z"/>
<path d="M55125 10872 c-9 -25 10 -34 29 -14 16 18 16 20 -3 25 -12 3 -22 -1
-26 -11z"/>
<path d="M43546 10791 c-3 -4 2 -16 12 -24 16 -15 18 -14 20 8 2 24 -20 35
-32 16z"/>
<path d="M43619 10466 c19 -20 37 -36 39 -36 8 0 -44 59 -58 65 -8 3 1 -10 19
-29z"/>
<path d="M43810 10488 c0 -8 7 -21 15 -28 19 -16 19 -1 0 24 -12 16 -15 17
-15 4z"/>
<path d="M43855 10420 c10 -11 20 -18 23 -15 7 6 -18 35 -31 35 -5 0 -2 -9 8
-20z"/>
<path d="M43900 10371 c0 -16 48 -67 55 -59 4 4 -4 18 -19 31 -14 13 -23 27
-19 30 3 4 1 7 -5 7 -7 0 -12 -4 -12 -9z"/>
<path d="M43960 10290 c0 -5 9 -14 19 -20 11 -5 23 -19 26 -30 3 -11 13 -20
21 -20 20 0 18 3 -19 44 -34 36 -47 44 -47 26z"/>
<path d="M44044 10195 c8 -8 17 -15 20 -15 3 0 3 7 0 15 -4 8 -13 15 -21 15
-12 0 -12 -2 1 -15z"/>
<path d="M44085 10160 c3 -5 8 -10 11 -10 2 0 4 5 4 10 0 6 -5 10 -11 10 -5 0
-7 -4 -4 -10z"/>
<path d="M44112 10124 c10 -10 20 -15 24 -12 3 4 -5 12 -18 18 -22 12 -22 12
-6 -6z"/>
<path d="M44160 10065 c0 -19 68 -87 75 -75 3 5 -8 22 -25 38 -16 16 -30 34
-30 41 0 6 -4 11 -10 11 -5 0 -10 -7 -10 -15z"/>
<path d="M44380 9811 c0 -6 4 -13 10 -16 6 -3 7 1 4 9 -7 18 -14 21 -14 7z"/>
<path d="M44257 9719 c45 -52 94 -107 109 -124 16 -16 51 -57 78 -90 63 -76
132 -146 118 -120 -5 11 -20 29 -33 40 -12 11 -44 47 -72 80 -27 33 -76 89
-108 125 -31 36 -79 90 -105 120 -26 30 -52 57 -57 59 -6 2 26 -39 70 -90z"/>
<path d="M55675 9800 c3 -5 8 -10 11 -10 2 0 4 5 4 10 0 6 -5 10 -11 10 -5 0
-7 -4 -4 -10z"/>
<path d="M55381 9697 c-43 -14 -83 -55 -163 -170 -35 -51 -167 -238 -293 -417
-307 -436 -393 -563 -410 -605 -22 -52 -19 -105 9 -146 30 -45 37 -49 651
-406 132 -77 308 -180 390 -228 338 -199 388 -223 446 -208 15 4 9 10 -28 28
-43 20 -303 167 -328 185 -8 6 -123 73 -615 360 -216 125 -400 237 -433 263
-41 32 -67 74 -67 107 0 35 24 73 228 360 307 432 398 561 434 613 139 200
170 233 229 238 56 5 81 -5 205 -77 129 -76 341 -199 444 -259 30 -18 72 -42
93 -54 l37 -23 0 24 c0 20 -14 32 -77 68 -66 36 -298 172 -523 305 -95 55
-153 66 -229 42z"/>
<path d="M45030 9600 c0 -5 5 -10 11 -10 5 0 7 5 4 10 -3 6 -8 10 -11 10 -2 0
-4 -4 -4 -10z"/>
<path d="M45171 9586 c-17 -20 -6 -38 79 -121 l71 -70 -32 70 c-18 39 -35 84
-38 100 -6 24 -12 31 -37 33 -18 2 -36 -3 -43 -12z"/>
<path d="M44700 9425 c0 -2 7 -8 15 -15 12 -10 15 -10 15 2 0 8 -7 15 -15 15
-8 0 -15 -1 -15 -2z"/>
<path d="M45383 9326 c2 -6 21 -17 43 -24 30 -9 95 -68 285 -255 222 -219 299
-300 299 -314 0 -3 20 -30 45 -62 25 -31 45 -60 45 -64 0 -4 15 -30 33 -59 44
-69 50 -88 32 -88 -8 0 -15 4 -15 8 0 4 -24 32 -52 63 -29 30 -93 99 -143 154
-49 54 -95 103 -100 109 -6 6 -23 27 -39 46 -16 19 -52 60 -80 91 -28 30 -96
107 -151 169 -136 154 -155 175 -155 162 0 -9 90 -126 110 -142 3 -3 102 -117
220 -255 118 -137 286 -331 375 -430 89 -99 235 -263 325 -364 231 -260 242
-271 263 -271 17 0 18 5 13 38 -4 20 -23 60 -42 87 -71 100 -262 393 -324 495
-101 169 -167 265 -223 327 -54 60 -69 75 -152 151 -27 25 -79 73 -115 106
-36 34 -110 102 -164 151 -55 50 -104 95 -110 100 -29 28 -63 45 -91 45 -16 1
-54 9 -83 19 -32 11 -51 14 -49 7z"/>
<path d="M55530 9100 c8 -5 20 -10 25 -10 6 0 3 5 -5 10 -8 5 -19 10 -25 10
-5 0 -3 -5 5 -10z"/>
<path d="M45384 8431 c11 -11 23 -21 28 -21 14 0 -1 19 -25 31 -22 12 -22 12
-3 -10z"/>
<path d="M55343 8313 c9 -2 23 -2 30 0 6 3 -1 5 -18 5 -16 0 -22 -2 -12 -5z"/>
<path d="M55490 8236 c0 -2 9 -6 20 -9 11 -3 18 -1 14 4 -5 9 -34 13 -34 5z"/>
<path d="M55560 8189 c0 -5 11 -9 25 -9 14 0 25 2 25 4 0 2 -11 6 -25 8 -14 3
-25 1 -25 -3z"/>
<path d="M55878 8013 c7 -3 16 -2 19 1 4 3 -2 6 -13 5 -11 0 -14 -3 -6 -6z"/>
<path d="M55698 7963 c6 -2 18 -2 25 0 6 3 1 5 -13 5 -14 0 -19 -2 -12 -5z"/>
<path d="M56038 7923 c7 -3 16 -2 19 1 4 3 -2 6 -13 5 -11 0 -14 -3 -6 -6z"/>
<path d="M47070 7402 c0 -12 80 -92 92 -92 14 0 -65 99 -79 100 -7 0 -13 -4
-13 -8z"/>
</g>
</svg>
